<?xml version="1.0" encoding="UTF-8" standalone="no"?>
<svg width="312.914mm" height="69.85mm"
 xmlns="http://www.w3.org/2000/svg" xmlns:xlink="http://www.w3.org/1999/xlink"  version="1.2" baseProfile="tiny">
<title>Qt SVG Document</title>
<desc>Generated with Qt</desc>
<defs>
</defs>
<g fill="none" stroke="black" stroke-width="1" fill-rule="evenodd" stroke-linecap="square" stroke-linejoin="bevel" >

<g fill="none" stroke="#000000" stroke-opacity="1" stroke-width="1" stroke-linecap="square" stroke-linejoin="bevel" transform="matrix(1,0,0,1,0,0)"
font-family="Ubuntu" font-size="11" font-weight="400" font-style="normal" 
>
</g>

<g fill="none" stroke="#000000" stroke-opacity="1" stroke-width="1" stroke-linecap="square" stroke-linejoin="bevel" transform="matrix(1,0,0,1,0,0)"
font-family="Ubuntu" font-size="11" font-weight="400" font-style="normal" 
>
</g>

<g fill="none" stroke="#000000" stroke-opacity="1" stroke-width="1" stroke-linecap="square" stroke-linejoin="bevel" transform="matrix(2,0,0,2,-15,213)"
font-family="Ubuntu" font-size="11" font-weight="400" font-style="normal" 
>
</g>

<g fill="#ffffff" fill-opacity="1" stroke="none" transform="matrix(2,0,0,2,-15,213)"
font-family="Ubuntu" font-size="11" font-weight="400" font-style="normal" 
>
<rect x="7.5" y="-106.5" width="443.38" height="99"/>
</g>

<g fill="none" stroke="#000000" stroke-opacity="1" stroke-width="1" stroke-linecap="square" stroke-linejoin="bevel" transform="matrix(2,0,0,2,-15,213)"
font-family="Ubuntu" font-size="11" font-weight="400" font-style="normal" 
>
</g>

<g fill="none" stroke="#000000" stroke-opacity="1" stroke-width="1" stroke-linecap="square" stroke-linejoin="bevel" transform="matrix(2,0,0,2,-15,213)"
font-family="Ubuntu" font-size="11" font-weight="400" font-style="normal" 
>
</g>

<g fill="none" stroke="#000000" stroke-opacity="1" stroke-width="1" stroke-linecap="square" stroke-linejoin="bevel" transform="matrix(2,0,0,2,-15,213)"
font-family="Ubuntu" font-size="11" font-weight="400" font-style="normal" 
>
</g>

<g fill="none" stroke="#000000" stroke-opacity="1" stroke-width="1" stroke-linecap="square" stroke-linejoin="bevel" transform="matrix(2,0,0,2,-15,213)"
font-family="Ubuntu" font-size="11" font-weight="400" font-style="normal" 
>
</g>

<g fill="none" stroke="#000000" stroke-opacity="1" stroke-width="1" stroke-linecap="square" stroke-linejoin="round" transform="matrix(2,0,0,2,-15,213)"
font-family="Ubuntu" font-size="11" font-weight="400" font-style="normal" 
>
<rect x="8" y="-83" width="131.69" height="75"/>
</g>

<g fill="none" stroke="#000000" stroke-opacity="1" stroke-width="1" stroke-linecap="square" stroke-linejoin="bevel" transform="matrix(2,0,0,2,-15,213)"
font-family="Ubuntu" font-size="11" font-weight="400" font-style="normal" 
>
</g>

<g fill="none" stroke="#000000" stroke-opacity="1" stroke-width="1" stroke-linecap="square" stroke-linejoin="bevel" transform="matrix(2,0,0,2,105.049,56)"
font-family="Ubuntu" font-size="11" font-weight="400" font-style="normal" 
>
</g>

<g fill="none" stroke="#000000" stroke-opacity="1" stroke-width="1" stroke-linecap="square" stroke-linejoin="bevel" transform="matrix(2,0,0,2,105.049,56)"
font-family="sans" font-size="11" font-weight="100" font-style="normal" 
>
</g>

<g fill="#000000" fill-opacity="1" stroke="#000000" stroke-opacity="1" stroke-width="1" stroke-linecap="square" stroke-linejoin="round" transform="matrix(2,0,0,2,105.049,56)"
font-family="sans" font-size="11" font-weight="100" font-style="normal" 
>
<path vector-effect="none" fill-rule="nonzero" d="M2.79688,2.98438 L3.70313,2.98438 L0.90625,12.0156 L0,12.0156 L2.79688,2.98438 M8.21875,5.90625 C8.11458,5.84375 7.9974,5.79688 7.86719,5.76563 C7.73698,5.73438 7.59375,5.71875 7.4375,5.71875 C6.875,5.71875 6.44531,5.90104 6.14844,6.26563 C5.85156,6.63021 5.70313,7.15104 5.70313,7.82813 L5.70313,11 L4.70313,11 L4.70313,4.98438 L5.70313,4.98438 L5.70313,5.92188 C5.90104,5.55729 6.16667,5.28646 6.5,5.10938 C6.83333,4.93229 7.23958,4.84375 7.71875,4.84375 C7.79167,4.84375 7.86719,4.84635 7.94531,4.85156 C8.02344,4.85677 8.11458,4.86979 8.21875,4.89063 L8.21875,5.90625 M11.5938,5.67188 C11.0625,5.67188 10.6432,5.88021 10.3359,6.29688 C10.0286,6.71354 9.875,7.28125 9.875,8 C9.875,8.71875 10.026,9.28385 10.3281,9.69531 C10.6302,10.1068 11.0521,10.3125 11.5938,10.3125 C12.1146,10.3125 12.5286,10.1068 12.8359,9.69531 C13.1432,9.28385 13.2969,8.71875 13.2969,8 C13.2969,7.28125 13.1432,6.71354 12.8359,6.29688 C12.5286,5.88021 12.1146,5.67188 11.5938,5.67188 M11.5938,4.84375 C12.4479,4.84375 13.1198,5.1224 13.6094,5.67969 C14.099,6.23698 14.3438,7.01042 14.3438,8 C14.3438,8.97917 14.099,9.75 13.6094,10.3125 C13.1198,10.875 12.4479,11.1563 11.5938,11.1563 C10.7292,11.1563 10.0521,10.875 9.5625,10.3125 C9.07292,9.75 8.82813,8.97917 8.82813,8 C8.82813,7.01042 9.07292,6.23698 9.5625,5.67969 C10.0521,5.1224 10.7292,4.84375 11.5938,4.84375 M19.8125,5.15625 L19.8125,6.09375 C19.5313,5.94792 19.2396,5.84115 18.9375,5.77344 C18.6354,5.70573 18.3229,5.67188 18,5.67188 C17.5104,5.67188 17.1432,5.7474 16.8984,5.89844 C16.6536,6.04948 16.5313,6.27083 16.5313,6.5625 C16.5313,6.79167 16.6198,6.97135 16.7969,7.10156 C16.974,7.23177 17.3281,7.35938 17.8594,7.48438 L18.1875,7.5625 C18.8958,7.70833 19.3958,7.91927 19.6875,8.19531 C19.9792,8.47135 20.125,8.85417 20.125,9.34375 C20.125,9.89583 19.9063,10.3359 19.4688,10.6641 C19.0313,10.9922 18.4219,11.1563 17.6406,11.1563 C17.3177,11.1563 16.9818,11.125 16.6328,11.0625 C16.2839,11 15.9167,10.9063 15.5313,10.7813 L15.5313,9.76563 C15.8958,9.95313 16.2552,10.0938 16.6094,10.1875 C16.9635,10.2813 17.3177,10.3281 17.6719,10.3281 C18.1302,10.3281 18.4844,10.2474 18.7344,10.0859 C18.9844,9.92448 19.1094,9.70313 19.1094,9.42188 C19.1094,9.15104 19.0208,8.94271 18.8438,8.79688 C18.6667,8.65104 18.2708,8.51563 17.6563,8.39063 L17.3125,8.29688 C16.6979,8.17188 16.2552,7.97656 15.9844,7.71094 C15.7135,7.44531 15.5781,7.07813 15.5781,6.60938 C15.5781,6.04688 15.7786,5.61198 16.1797,5.30469 C16.5807,4.9974 17.151,4.84375 17.8906,4.84375 C18.2552,4.84375 18.599,4.86979 18.9219,4.92188 C19.2448,4.97396 19.5417,5.05208 19.8125,5.15625 M22.7656,10.0938 L26.5469,10.0938 L26.5469,11 L21.4688,11 L21.4688,10.0938 C21.875,9.66667 22.4349,9.09375 23.1484,8.375 C23.862,7.65625 24.3073,7.19271 24.4844,6.98438 C24.8281,6.58854 25.0703,6.25521 25.2109,5.98438 C25.3516,5.71354 25.4219,5.44792 25.4219,5.1875 C25.4219,4.76042 25.2734,4.41406 24.9766,4.14844 C24.6797,3.88281 24.2865,3.75 23.7969,3.75 C23.4635,3.75 23.1068,3.8099 22.7266,3.92969 C22.3464,4.04948 21.9427,4.22917 21.5156,4.46875 L21.5156,3.375 C21.9531,3.19792 22.362,3.0625 22.7422,2.96875 C23.1224,2.875 23.4688,2.82813 23.7813,2.82813 C24.6146,2.82813 25.2786,3.03646 25.7734,3.45313 C26.2682,3.86979 26.5156,4.42708 26.5156,5.125 C26.5156,5.45833 26.4531,5.77083 26.3281,6.0625 C26.2031,6.35417 25.9792,6.70313 25.6563,7.10938 C25.5625,7.21354 25.276,7.51302 24.7969,8.00781 C24.3177,8.5026 23.6406,9.19792 22.7656,10.0938 "/>
</g>

<g fill="none" stroke="#000000" stroke-opacity="1" stroke-width="1" stroke-linecap="square" stroke-linejoin="bevel" transform="matrix(2,0,0,2,105.049,56)"
font-family="sans" font-size="11" font-weight="100" font-style="normal" 
>
</g>

<g fill="none" stroke="#000000" stroke-opacity="1" stroke-width="1" stroke-linecap="square" stroke-linejoin="bevel" transform="matrix(2,0,0,2,105.049,56)"
font-family="Ubuntu" font-size="11" font-weight="400" font-style="normal" 
>
</g>

<g fill="none" stroke="#000000" stroke-opacity="1" stroke-width="1" stroke-linecap="square" stroke-linejoin="bevel" transform="matrix(2,0,0,2,-15,213)"
font-family="Ubuntu" font-size="11" font-weight="400" font-style="normal" 
>
</g>

<g fill="none" stroke="#000000" stroke-opacity="1" stroke-width="1" stroke-linecap="square" stroke-linejoin="bevel" transform="matrix(2,0,0,2,-15,213)"
font-family="Ubuntu" font-size="11" font-weight="400" font-style="normal" 
>
</g>

<g fill="none" stroke="#000000" stroke-opacity="1" stroke-width="1" stroke-linecap="square" stroke-linejoin="bevel" transform="matrix(2,0,0,2,-15,213)"
font-family="Ubuntu" font-size="11" font-weight="400" font-style="normal" 
>
</g>

<g fill="none" stroke="#000000" stroke-opacity="1" stroke-width="1" stroke-linecap="square" stroke-linejoin="round" transform="matrix(2,0,0,2,-15,213)"
font-family="Ubuntu" font-size="11" font-weight="400" font-style="normal" 
>
<ellipse cx="73.845" cy="-34" rx="57.3448" ry="17.5"/>
</g>

<g fill="none" stroke="#000000" stroke-opacity="1" stroke-width="1" stroke-linecap="square" stroke-linejoin="bevel" transform="matrix(2,0,0,2,-15,213)"
font-family="Ubuntu" font-size="11" font-weight="400" font-style="normal" 
>
</g>

<g fill="none" stroke="#000000" stroke-opacity="1" stroke-width="1" stroke-linecap="square" stroke-linejoin="bevel" transform="matrix(2,0,0,2,77.3931,131)"
font-family="Ubuntu" font-size="11" font-weight="400" font-style="normal" 
>
</g>

<g fill="none" stroke="#000000" stroke-opacity="1" stroke-width="1" stroke-linecap="square" stroke-linejoin="bevel" transform="matrix(2,0,0,2,77.3931,131)"
font-family="sans" font-size="11" font-weight="100" font-style="normal" 
>
</g>

<g fill="#000000" fill-opacity="1" stroke="#000000" stroke-opacity="1" stroke-width="1" stroke-linecap="square" stroke-linejoin="round" transform="matrix(2,0,0,2,77.3931,131)"
font-family="sans" font-size="11" font-weight="100" font-style="normal" 
>
<path vector-effect="none" fill-rule="nonzero" d="M2.79688,2.98438 L3.70313,2.98438 L0.90625,12.0156 L0,12.0156 L2.79688,2.98438 M8.21875,5.90625 C8.11458,5.84375 7.9974,5.79688 7.86719,5.76563 C7.73698,5.73438 7.59375,5.71875 7.4375,5.71875 C6.875,5.71875 6.44531,5.90104 6.14844,6.26563 C5.85156,6.63021 5.70313,7.15104 5.70313,7.82813 L5.70313,11 L4.70313,11 L4.70313,4.98438 L5.70313,4.98438 L5.70313,5.92188 C5.90104,5.55729 6.16667,5.28646 6.5,5.10938 C6.83333,4.93229 7.23958,4.84375 7.71875,4.84375 C7.79167,4.84375 7.86719,4.84635 7.94531,4.85156 C8.02344,4.85677 8.11458,4.86979 8.21875,4.89063 L8.21875,5.90625 M11.5938,5.67188 C11.0625,5.67188 10.6432,5.88021 10.3359,6.29688 C10.0286,6.71354 9.875,7.28125 9.875,8 C9.875,8.71875 10.026,9.28385 10.3281,9.69531 C10.6302,10.1068 11.0521,10.3125 11.5938,10.3125 C12.1146,10.3125 12.5286,10.1068 12.8359,9.69531 C13.1432,9.28385 13.2969,8.71875 13.2969,8 C13.2969,7.28125 13.1432,6.71354 12.8359,6.29688 C12.5286,5.88021 12.1146,5.67188 11.5938,5.67188 M11.5938,4.84375 C12.4479,4.84375 13.1198,5.1224 13.6094,5.67969 C14.099,6.23698 14.3438,7.01042 14.3438,8 C14.3438,8.97917 14.099,9.75 13.6094,10.3125 C13.1198,10.875 12.4479,11.1563 11.5938,11.1563 C10.7292,11.1563 10.0521,10.875 9.5625,10.3125 C9.07292,9.75 8.82813,8.97917 8.82813,8 C8.82813,7.01042 9.07292,6.23698 9.5625,5.67969 C10.0521,5.1224 10.7292,4.84375 11.5938,4.84375 M19.8125,5.15625 L19.8125,6.09375 C19.5313,5.94792 19.2396,5.84115 18.9375,5.77344 C18.6354,5.70573 18.3229,5.67188 18,5.67188 C17.5104,5.67188 17.1432,5.7474 16.8984,5.89844 C16.6536,6.04948 16.5313,6.27083 16.5313,6.5625 C16.5313,6.79167 16.6198,6.97135 16.7969,7.10156 C16.974,7.23177 17.3281,7.35938 17.8594,7.48438 L18.1875,7.5625 C18.8958,7.70833 19.3958,7.91927 19.6875,8.19531 C19.9792,8.47135 20.125,8.85417 20.125,9.34375 C20.125,9.89583 19.9063,10.3359 19.4688,10.6641 C19.0313,10.9922 18.4219,11.1563 17.6406,11.1563 C17.3177,11.1563 16.9818,11.125 16.6328,11.0625 C16.2839,11 15.9167,10.9063 15.5313,10.7813 L15.5313,9.76563 C15.8958,9.95313 16.2552,10.0938 16.6094,10.1875 C16.9635,10.2813 17.3177,10.3281 17.6719,10.3281 C18.1302,10.3281 18.4844,10.2474 18.7344,10.0859 C18.9844,9.92448 19.1094,9.70313 19.1094,9.42188 C19.1094,9.15104 19.0208,8.94271 18.8438,8.79688 C18.6667,8.65104 18.2708,8.51563 17.6563,8.39063 L17.3125,8.29688 C16.6979,8.17188 16.2552,7.97656 15.9844,7.71094 C15.7135,7.44531 15.5781,7.07813 15.5781,6.60938 C15.5781,6.04688 15.7786,5.61198 16.1797,5.30469 C16.5807,4.9974 17.151,4.84375 17.8906,4.84375 C18.2552,4.84375 18.599,4.86979 18.9219,4.92188 C19.2448,4.97396 19.5417,5.05208 19.8125,5.15625 M22.7656,10.0938 L26.5469,10.0938 L26.5469,11 L21.4688,11 L21.4688,10.0938 C21.875,9.66667 22.4349,9.09375 23.1484,8.375 C23.862,7.65625 24.3073,7.19271 24.4844,6.98438 C24.8281,6.58854 25.0703,6.25521 25.2109,5.98438 C25.3516,5.71354 25.4219,5.44792 25.4219,5.1875 C25.4219,4.76042 25.2734,4.41406 24.9766,4.14844 C24.6797,3.88281 24.2865,3.75 23.7969,3.75 C23.4635,3.75 23.1068,3.8099 22.7266,3.92969 C22.3464,4.04948 21.9427,4.22917 21.5156,4.46875 L21.5156,3.375 C21.9531,3.19792 22.362,3.0625 22.7422,2.96875 C23.1224,2.875 23.4688,2.82813 23.7813,2.82813 C24.6146,2.82813 25.2786,3.03646 25.7734,3.45313 C26.2682,3.86979 26.5156,4.42708 26.5156,5.125 C26.5156,5.45833 26.4531,5.77083 26.3281,6.0625 C26.2031,6.35417 25.9792,6.70313 25.6563,7.10938 C25.5625,7.21354 25.276,7.51302 24.7969,8.00781 C24.3177,8.5026 23.6406,9.19792 22.7656,10.0938 M30.4375,2.98438 L31.3438,2.98438 L28.5469,12.0156 L27.6406,12.0156 L30.4375,2.98438 M33.3438,10.0938 L33.3438,13.2813 L32.3438,13.2813 L32.3438,4.98438 L33.3438,4.98438 L33.3438,5.89063 C33.5417,5.53646 33.7995,5.27344 34.1172,5.10156 C34.4349,4.92969 34.8177,4.84375 35.2656,4.84375 C35.9948,4.84375 36.5859,5.13281 37.0391,5.71094 C37.4922,6.28906 37.7188,7.05208 37.7188,8 C37.7188,8.94792 37.4922,9.71094 37.0391,10.2891 C36.5859,10.8672 35.9948,11.1563 35.2656,11.1563 C34.8177,11.1563 34.4349,11.0703 34.1172,10.8984 C33.7995,10.7266 33.5417,10.4583 33.3438,10.0938 M36.7031,8 C36.7031,7.27083 36.5521,6.70052 36.25,6.28906 C35.9479,5.8776 35.5365,5.67188 35.0156,5.67188 C34.4948,5.67188 34.0859,5.8776 33.7891,6.28906 C33.4922,6.70052 33.3438,7.27083 33.3438,8 C33.3438,8.72917 33.4922,9.29948 33.7891,9.71094 C34.0859,10.1224 34.4948,10.3281 35.0156,10.3281 C35.5365,10.3281 35.9479,10.1224 36.25,9.71094 C36.5521,9.29948 36.7031,8.72917 36.7031,8 M39.3438,4.98438 L40.3438,4.98438 L40.3438,11 L39.3438,11 L39.3438,4.98438 M39.3438,2.64063 L40.3438,2.64063 L40.3438,3.89063 L39.3438,3.89063 L39.3438,2.64063 M47.3906,7.375 L47.3906,11 L46.4063,11 L46.4063,7.40625 C46.4063,6.83333 46.2969,6.40625 46.0781,6.125 C45.8594,5.84375 45.526,5.70313 45.0781,5.70313 C44.5469,5.70313 44.1276,5.8724 43.8203,6.21094 C43.513,6.54948 43.3594,7.01042 43.3594,7.59375 L43.3594,11 L42.3594,11 L42.3594,4.98438 L43.3594,4.98438 L43.3594,5.92188 C43.5885,5.55729 43.8646,5.28646 44.1875,5.10938 C44.5104,4.93229 44.8802,4.84375 45.2969,4.84375 C45.9844,4.84375 46.5052,5.05729 46.8594,5.48438 C47.2135,5.91146 47.3906,6.54167 47.3906,7.375 M53.3281,7.92188 C53.3281,7.20313 53.1797,6.64844 52.8828,6.25781 C52.5859,5.86719 52.1719,5.67188 51.6406,5.67188 C51.1094,5.67188 50.6953,5.86719 50.3984,6.25781 C50.1016,6.64844 49.9531,7.20313 49.9531,7.92188 C49.9531,8.63021 50.1016,9.18229 50.3984,9.57813 C50.6953,9.97396 51.1094,10.1719 51.6406,10.1719 C52.1719,10.1719 52.5859,9.97396 52.8828,9.57813 C53.1797,9.18229 53.3281,8.63021 53.3281,7.92188 M54.3125,10.25 C54.3125,11.2813 54.0859,12.0443 53.6328,12.5391 C53.1797,13.0339 52.4844,13.2813 51.5469,13.2813 C51.1927,13.2813 50.862,13.2552 50.5547,13.2031 C50.2474,13.151 49.9479,13.0729 49.6563,12.9688 L49.6563,12.0156 C49.9479,12.1719 50.2344,12.2865 50.5156,12.3594 C50.7969,12.4323 51.0885,12.4688 51.3906,12.4688 C52.0365,12.4688 52.5208,12.2995 52.8438,11.9609 C53.1667,11.6224 53.3281,11.1146 53.3281,10.4375 L53.3281,9.9375 C53.1198,10.2917 52.8568,10.5573 52.5391,10.7344 C52.2214,10.9115 51.8385,11 51.3906,11 C50.651,11 50.0573,10.7188 49.6094,10.1563 C49.1615,9.59375 48.9375,8.84896 48.9375,7.92188 C48.9375,6.99479 49.1615,6.25 49.6094,5.6875 C50.0573,5.125 50.651,4.84375 51.3906,4.84375 C51.8385,4.84375 52.2214,4.92969 52.5391,5.10156 C52.8568,5.27344 53.1198,5.53646 53.3281,5.89063 L53.3281,4.98438 L54.3125,4.98438 L54.3125,10.25"/>
</g>

<g fill="none" stroke="#000000" stroke-opacity="1" stroke-width="1" stroke-linecap="square" stroke-linejoin="bevel" transform="matrix(2,0,0,2,77.3931,131)"
font-family="sans" font-size="11" font-weight="100" font-style="normal" 
>
</g>

<g fill="none" stroke="#000000" stroke-opacity="1" stroke-width="1" stroke-linecap="square" stroke-linejoin="bevel" transform="matrix(2,0,0,2,77.3931,131)"
font-family="Ubuntu" font-size="11" font-weight="400" font-style="normal" 
>
</g>

<g fill="none" stroke="#000000" stroke-opacity="1" stroke-width="1" stroke-linecap="square" stroke-linejoin="bevel" transform="matrix(2,0,0,2,-15,213)"
font-family="Ubuntu" font-size="11" font-weight="400" font-style="normal" 
>
</g>

<g fill="none" stroke="#000000" stroke-opacity="1" stroke-width="1" stroke-linecap="square" stroke-linejoin="bevel" transform="matrix(2,0,0,2,-15,213)"
font-family="Ubuntu" font-size="11" font-weight="400" font-style="normal" 
>
</g>

<g fill="none" stroke="#000000" stroke-opacity="1" stroke-width="1" stroke-linecap="square" stroke-linejoin="bevel" transform="matrix(2,0,0,2,-15,213)"
font-family="Ubuntu" font-size="11" font-weight="400" font-style="normal" 
>
</g>

<g fill="none" stroke="#000000" stroke-opacity="1" stroke-width="1" stroke-linecap="square" stroke-linejoin="round" transform="matrix(2,0,0,2,-15,213)"
font-family="Ubuntu" font-size="11" font-weight="400" font-style="normal" 
>
<ellipse cx="73.845" cy="-34" rx="57.3448" ry="17.5"/>
</g>

<g fill="none" stroke="#000000" stroke-opacity="1" stroke-width="1" stroke-linecap="square" stroke-linejoin="bevel" transform="matrix(2,0,0,2,-15,213)"
font-family="Ubuntu" font-size="11" font-weight="400" font-style="normal" 
>
</g>

<g fill="none" stroke="#000000" stroke-opacity="1" stroke-width="1" stroke-linecap="square" stroke-linejoin="bevel" transform="matrix(2,0,0,2,77.3931,131)"
font-family="Ubuntu" font-size="11" font-weight="400" font-style="normal" 
>
</g>

<g fill="none" stroke="#000000" stroke-opacity="1" stroke-width="1" stroke-linecap="square" stroke-linejoin="bevel" transform="matrix(2,0,0,2,77.3931,131)"
font-family="sans" font-size="11" font-weight="100" font-style="normal" 
>
</g>

<g fill="#000000" fill-opacity="1" stroke="#000000" stroke-opacity="1" stroke-width="1" stroke-linecap="square" stroke-linejoin="round" transform="matrix(2,0,0,2,77.3931,131)"
font-family="sans" font-size="11" font-weight="100" font-style="normal" 
>
<path vector-effect="none" fill-rule="nonzero" d="M2.79688,2.98438 L3.70313,2.98438 L0.90625,12.0156 L0,12.0156 L2.79688,2.98438 M8.21875,5.90625 C8.11458,5.84375 7.9974,5.79688 7.86719,5.76563 C7.73698,5.73438 7.59375,5.71875 7.4375,5.71875 C6.875,5.71875 6.44531,5.90104 6.14844,6.26563 C5.85156,6.63021 5.70313,7.15104 5.70313,7.82813 L5.70313,11 L4.70313,11 L4.70313,4.98438 L5.70313,4.98438 L5.70313,5.92188 C5.90104,5.55729 6.16667,5.28646 6.5,5.10938 C6.83333,4.93229 7.23958,4.84375 7.71875,4.84375 C7.79167,4.84375 7.86719,4.84635 7.94531,4.85156 C8.02344,4.85677 8.11458,4.86979 8.21875,4.89063 L8.21875,5.90625 M11.5938,5.67188 C11.0625,5.67188 10.6432,5.88021 10.3359,6.29688 C10.0286,6.71354 9.875,7.28125 9.875,8 C9.875,8.71875 10.026,9.28385 10.3281,9.69531 C10.6302,10.1068 11.0521,10.3125 11.5938,10.3125 C12.1146,10.3125 12.5286,10.1068 12.8359,9.69531 C13.1432,9.28385 13.2969,8.71875 13.2969,8 C13.2969,7.28125 13.1432,6.71354 12.8359,6.29688 C12.5286,5.88021 12.1146,5.67188 11.5938,5.67188 M11.5938,4.84375 C12.4479,4.84375 13.1198,5.1224 13.6094,5.67969 C14.099,6.23698 14.3438,7.01042 14.3438,8 C14.3438,8.97917 14.099,9.75 13.6094,10.3125 C13.1198,10.875 12.4479,11.1563 11.5938,11.1563 C10.7292,11.1563 10.0521,10.875 9.5625,10.3125 C9.07292,9.75 8.82813,8.97917 8.82813,8 C8.82813,7.01042 9.07292,6.23698 9.5625,5.67969 C10.0521,5.1224 10.7292,4.84375 11.5938,4.84375 M19.8125,5.15625 L19.8125,6.09375 C19.5313,5.94792 19.2396,5.84115 18.9375,5.77344 C18.6354,5.70573 18.3229,5.67188 18,5.67188 C17.5104,5.67188 17.1432,5.7474 16.8984,5.89844 C16.6536,6.04948 16.5313,6.27083 16.5313,6.5625 C16.5313,6.79167 16.6198,6.97135 16.7969,7.10156 C16.974,7.23177 17.3281,7.35938 17.8594,7.48438 L18.1875,7.5625 C18.8958,7.70833 19.3958,7.91927 19.6875,8.19531 C19.9792,8.47135 20.125,8.85417 20.125,9.34375 C20.125,9.89583 19.9063,10.3359 19.4688,10.6641 C19.0313,10.9922 18.4219,11.1563 17.6406,11.1563 C17.3177,11.1563 16.9818,11.125 16.6328,11.0625 C16.2839,11 15.9167,10.9063 15.5313,10.7813 L15.5313,9.76563 C15.8958,9.95313 16.2552,10.0938 16.6094,10.1875 C16.9635,10.2813 17.3177,10.3281 17.6719,10.3281 C18.1302,10.3281 18.4844,10.2474 18.7344,10.0859 C18.9844,9.92448 19.1094,9.70313 19.1094,9.42188 C19.1094,9.15104 19.0208,8.94271 18.8438,8.79688 C18.6667,8.65104 18.2708,8.51563 17.6563,8.39063 L17.3125,8.29688 C16.6979,8.17188 16.2552,7.97656 15.9844,7.71094 C15.7135,7.44531 15.5781,7.07813 15.5781,6.60938 C15.5781,6.04688 15.7786,5.61198 16.1797,5.30469 C16.5807,4.9974 17.151,4.84375 17.8906,4.84375 C18.2552,4.84375 18.599,4.86979 18.9219,4.92188 C19.2448,4.97396 19.5417,5.05208 19.8125,5.15625 M22.7656,10.0938 L26.5469,10.0938 L26.5469,11 L21.4688,11 L21.4688,10.0938 C21.875,9.66667 22.4349,9.09375 23.1484,8.375 C23.862,7.65625 24.3073,7.19271 24.4844,6.98438 C24.8281,6.58854 25.0703,6.25521 25.2109,5.98438 C25.3516,5.71354 25.4219,5.44792 25.4219,5.1875 C25.4219,4.76042 25.2734,4.41406 24.9766,4.14844 C24.6797,3.88281 24.2865,3.75 23.7969,3.75 C23.4635,3.75 23.1068,3.8099 22.7266,3.92969 C22.3464,4.04948 21.9427,4.22917 21.5156,4.46875 L21.5156,3.375 C21.9531,3.19792 22.362,3.0625 22.7422,2.96875 C23.1224,2.875 23.4688,2.82813 23.7813,2.82813 C24.6146,2.82813 25.2786,3.03646 25.7734,3.45313 C26.2682,3.86979 26.5156,4.42708 26.5156,5.125 C26.5156,5.45833 26.4531,5.77083 26.3281,6.0625 C26.2031,6.35417 25.9792,6.70313 25.6563,7.10938 C25.5625,7.21354 25.276,7.51302 24.7969,8.00781 C24.3177,8.5026 23.6406,9.19792 22.7656,10.0938 M30.4375,2.98438 L31.3438,2.98438 L28.5469,12.0156 L27.6406,12.0156 L30.4375,2.98438 M33.3438,10.0938 L33.3438,13.2813 L32.3438,13.2813 L32.3438,4.98438 L33.3438,4.98438 L33.3438,5.89063 C33.5417,5.53646 33.7995,5.27344 34.1172,5.10156 C34.4349,4.92969 34.8177,4.84375 35.2656,4.84375 C35.9948,4.84375 36.5859,5.13281 37.0391,5.71094 C37.4922,6.28906 37.7188,7.05208 37.7188,8 C37.7188,8.94792 37.4922,9.71094 37.0391,10.2891 C36.5859,10.8672 35.9948,11.1563 35.2656,11.1563 C34.8177,11.1563 34.4349,11.0703 34.1172,10.8984 C33.7995,10.7266 33.5417,10.4583 33.3438,10.0938 M36.7031,8 C36.7031,7.27083 36.5521,6.70052 36.25,6.28906 C35.9479,5.8776 35.5365,5.67188 35.0156,5.67188 C34.4948,5.67188 34.0859,5.8776 33.7891,6.28906 C33.4922,6.70052 33.3438,7.27083 33.3438,8 C33.3438,8.72917 33.4922,9.29948 33.7891,9.71094 C34.0859,10.1224 34.4948,10.3281 35.0156,10.3281 C35.5365,10.3281 35.9479,10.1224 36.25,9.71094 C36.5521,9.29948 36.7031,8.72917 36.7031,8 M39.3438,4.98438 L40.3438,4.98438 L40.3438,11 L39.3438,11 L39.3438,4.98438 M39.3438,2.64063 L40.3438,2.64063 L40.3438,3.89063 L39.3438,3.89063 L39.3438,2.64063 M47.3906,7.375 L47.3906,11 L46.4063,11 L46.4063,7.40625 C46.4063,6.83333 46.2969,6.40625 46.0781,6.125 C45.8594,5.84375 45.526,5.70313 45.0781,5.70313 C44.5469,5.70313 44.1276,5.8724 43.8203,6.21094 C43.513,6.54948 43.3594,7.01042 43.3594,7.59375 L43.3594,11 L42.3594,11 L42.3594,4.98438 L43.3594,4.98438 L43.3594,5.92188 C43.5885,5.55729 43.8646,5.28646 44.1875,5.10938 C44.5104,4.93229 44.8802,4.84375 45.2969,4.84375 C45.9844,4.84375 46.5052,5.05729 46.8594,5.48438 C47.2135,5.91146 47.3906,6.54167 47.3906,7.375 M53.3281,7.92188 C53.3281,7.20313 53.1797,6.64844 52.8828,6.25781 C52.5859,5.86719 52.1719,5.67188 51.6406,5.67188 C51.1094,5.67188 50.6953,5.86719 50.3984,6.25781 C50.1016,6.64844 49.9531,7.20313 49.9531,7.92188 C49.9531,8.63021 50.1016,9.18229 50.3984,9.57813 C50.6953,9.97396 51.1094,10.1719 51.6406,10.1719 C52.1719,10.1719 52.5859,9.97396 52.8828,9.57813 C53.1797,9.18229 53.3281,8.63021 53.3281,7.92188 M54.3125,10.25 C54.3125,11.2813 54.0859,12.0443 53.6328,12.5391 C53.1797,13.0339 52.4844,13.2813 51.5469,13.2813 C51.1927,13.2813 50.862,13.2552 50.5547,13.2031 C50.2474,13.151 49.9479,13.0729 49.6563,12.9688 L49.6563,12.0156 C49.9479,12.1719 50.2344,12.2865 50.5156,12.3594 C50.7969,12.4323 51.0885,12.4688 51.3906,12.4688 C52.0365,12.4688 52.5208,12.2995 52.8438,11.9609 C53.1667,11.6224 53.3281,11.1146 53.3281,10.4375 L53.3281,9.9375 C53.1198,10.2917 52.8568,10.5573 52.5391,10.7344 C52.2214,10.9115 51.8385,11 51.3906,11 C50.651,11 50.0573,10.7188 49.6094,10.1563 C49.1615,9.59375 48.9375,8.84896 48.9375,7.92188 C48.9375,6.99479 49.1615,6.25 49.6094,5.6875 C50.0573,5.125 50.651,4.84375 51.3906,4.84375 C51.8385,4.84375 52.2214,4.92969 52.5391,5.10156 C52.8568,5.27344 53.1198,5.53646 53.3281,5.89063 L53.3281,4.98438 L54.3125,4.98438 L54.3125,10.25"/>
</g>

<g fill="none" stroke="#000000" stroke-opacity="1" stroke-width="1" stroke-linecap="square" stroke-linejoin="bevel" transform="matrix(2,0,0,2,77.3931,131)"
font-family="sans" font-size="11" font-weight="100" font-style="normal" 
>
</g>

<g fill="none" stroke="#000000" stroke-opacity="1" stroke-width="1" stroke-linecap="square" stroke-linejoin="bevel" transform="matrix(2,0,0,2,77.3931,131)"
font-family="Ubuntu" font-size="11" font-weight="400" font-style="normal" 
>
</g>

<g fill="none" stroke="#000000" stroke-opacity="1" stroke-width="1" stroke-linecap="square" stroke-linejoin="bevel" transform="matrix(2,0,0,2,-15,213)"
font-family="Ubuntu" font-size="11" font-weight="400" font-style="normal" 
>
</g>

<g fill="none" stroke="#000000" stroke-opacity="1" stroke-width="1" stroke-linecap="square" stroke-linejoin="bevel" transform="matrix(2,0,0,2,-15,213)"
font-family="Ubuntu" font-size="11" font-weight="400" font-style="normal" 
>
</g>

<g fill="none" stroke="#000000" stroke-opacity="1" stroke-width="1" stroke-linecap="square" stroke-linejoin="bevel" transform="matrix(2,0,0,2,-15,213)"
font-family="Ubuntu" font-size="11" font-weight="400" font-style="normal" 
>
</g>

<g fill="none" stroke="#000000" stroke-opacity="1" stroke-width="1" stroke-linecap="square" stroke-linejoin="round" transform="matrix(2,0,0,2,-15,213)"
font-family="Ubuntu" font-size="11" font-weight="400" font-style="normal" 
>
<rect x="209.69" y="-106" width="177.19" height="75"/>
</g>

<g fill="none" stroke="#000000" stroke-opacity="1" stroke-width="1" stroke-linecap="square" stroke-linejoin="bevel" transform="matrix(2,0,0,2,-15,213)"
font-family="Ubuntu" font-size="11" font-weight="400" font-style="normal" 
>
</g>

<g fill="none" stroke="#000000" stroke-opacity="1" stroke-width="1" stroke-linecap="square" stroke-linejoin="bevel" transform="matrix(2,0,0,2,529.872,10)"
font-family="Ubuntu" font-size="11" font-weight="400" font-style="normal" 
>
</g>

<g fill="none" stroke="#000000" stroke-opacity="1" stroke-width="1" stroke-linecap="square" stroke-linejoin="bevel" transform="matrix(2,0,0,2,529.872,10)"
font-family="sans" font-size="11" font-weight="100" font-style="normal" 
>
</g>

<g fill="#000000" fill-opacity="1" stroke="#000000" stroke-opacity="1" stroke-width="1" stroke-linecap="square" stroke-linejoin="round" transform="matrix(2,0,0,2,529.872,10)"
font-family="sans" font-size="11" font-weight="100" font-style="normal" 
>
<path vector-effect="none" fill-rule="nonzero" d="M2.79688,2.98438 L3.70313,2.98438 L0.90625,12.0156 L0,12.0156 L2.79688,2.98438 M9.42188,6.14063 C9.67188,5.69271 9.96875,5.36458 10.3125,5.15625 C10.6563,4.94792 11.0625,4.84375 11.5313,4.84375 C12.1563,4.84375 12.638,5.0625 12.9766,5.5 C13.3151,5.9375 13.4844,6.5625 13.4844,7.375 L13.4844,11 L12.4844,11 L12.4844,7.40625 C12.4844,6.82292 12.3828,6.39323 12.1797,6.11719 C11.9766,5.84115 11.6667,5.70313 11.25,5.70313 C10.7396,5.70313 10.3359,5.8724 10.0391,6.21094 C9.74219,6.54948 9.59375,7.01042 9.59375,7.59375 L9.59375,11 L8.59375,11 L8.59375,7.40625 C8.59375,6.82292 8.49219,6.39323 8.28906,6.11719 C8.08594,5.84115 7.77083,5.70313 7.34375,5.70313 C6.84375,5.70313 6.44531,5.8724 6.14844,6.21094 C5.85156,6.54948 5.70313,7.01042 5.70313,7.59375 L5.70313,11 L4.70313,11 L4.70313,4.98438 L5.70313,4.98438 L5.70313,5.92188 C5.92188,5.54688 6.1901,5.27344 6.50781,5.10156 C6.82552,4.92969 7.19792,4.84375 7.625,4.84375 C8.0625,4.84375 8.4349,4.95313 8.74219,5.17188 C9.04948,5.39063 9.27604,5.71354 9.42188,6.14063 M15.4375,4.98438 L16.4375,4.98438 L16.4375,11 L15.4375,11 L15.4375,4.98438 M15.4375,2.64063 L16.4375,2.64063 L16.4375,3.89063 L15.4375,3.89063 L15.4375,2.64063 M22.8125,5.21875 L22.8125,6.14063 C22.5417,5.98438 22.2656,5.86719 21.9844,5.78906 C21.7031,5.71094 21.4167,5.67188 21.125,5.67188 C20.4896,5.67188 19.9948,5.875 19.6406,6.28125 C19.2865,6.6875 19.1094,7.26042 19.1094,8 C19.1094,8.72917 19.2865,9.29688 19.6406,9.70313 C19.9948,10.1094 20.4896,10.3125 21.125,10.3125 C21.4167,10.3125 21.7031,10.276 21.9844,10.2031 C22.2656,10.1302 22.5417,10.0156 22.8125,9.85938 L22.8125,10.7656 C22.5417,10.901 22.2578,11 21.9609,11.0625 C21.6641,11.125 21.349,11.1563 21.0156,11.1563 C20.1094,11.1563 19.3906,10.8724 18.8594,10.3047 C18.3281,9.73698 18.0625,8.96875 18.0625,8 C18.0625,7.02083 18.3307,6.25 18.8672,5.6875 C19.4036,5.125 20.1406,4.84375 21.0781,4.84375 C21.3906,4.84375 21.6901,4.875 21.9766,4.9375 C22.263,5 22.5417,5.09375 22.8125,5.21875 M28.0156,5.90625 C27.9115,5.84375 27.7943,5.79688 27.6641,5.76563 C27.5339,5.73438 27.3906,5.71875 27.2344,5.71875 C26.6719,5.71875 26.2422,5.90104 25.9453,6.26563 C25.6484,6.63021 25.5,7.15104 25.5,7.82813 L25.5,11 L24.5,11 L24.5,4.98438 L25.5,4.98438 L25.5,5.92188 C25.6979,5.55729 25.9635,5.28646 26.2969,5.10938 C26.6302,4.93229 27.0365,4.84375 27.5156,4.84375 C27.5885,4.84375 27.6641,4.84635 27.7422,4.85156 C27.8203,4.85677 27.9115,4.86979 28.0156,4.89063 L28.0156,5.90625 M31.3906,5.67188 C30.8594,5.67188 30.4401,5.88021 30.1328,6.29688 C29.8255,6.71354 29.6719,7.28125 29.6719,8 C29.6719,8.71875 29.8229,9.28385 30.125,9.69531 C30.4271,10.1068 30.849,10.3125 31.3906,10.3125 C31.9115,10.3125 32.3255,10.1068 32.6328,9.69531 C32.9401,9.28385 33.0938,8.71875 33.0938,8 C33.0938,7.28125 32.9401,6.71354 32.6328,6.29688 C32.3255,5.88021 31.9115,5.67188 31.3906,5.67188 M31.3906,4.84375 C32.2448,4.84375 32.9167,5.1224 33.4063,5.67969 C33.8958,6.23698 34.1406,7.01042 34.1406,8 C34.1406,8.97917 33.8958,9.75 33.4063,10.3125 C32.9167,10.875 32.2448,11.1563 31.3906,11.1563 C30.526,11.1563 29.849,10.875 29.3594,10.3125 C28.8698,9.75 28.625,8.97917 28.625,8 C28.625,7.01042 28.8698,6.23698 29.3594,5.67969 C29.849,5.1224 30.526,4.84375 31.3906,4.84375 M39.25,5.90625 C39.1458,5.84375 39.0286,5.79688 38.8984,5.76563 C38.7682,5.73438 38.625,5.71875 38.4688,5.71875 C37.9063,5.71875 37.4766,5.90104 37.1797,6.26563 C36.8828,6.63021 36.7344,7.15104 36.7344,7.82813 L36.7344,11 L35.7344,11 L35.7344,4.98438 L36.7344,4.98438 L36.7344,5.92188 C36.9323,5.55729 37.1979,5.28646 37.5313,5.10938 C37.8646,4.93229 38.2708,4.84375 38.75,4.84375 C38.8229,4.84375 38.8984,4.84635 38.9766,4.85156 C39.0547,4.85677 39.1458,4.86979 39.25,4.89063 L39.25,5.90625 M42.625,5.67188 C42.0938,5.67188 41.6745,5.88021 41.3672,6.29688 C41.0599,6.71354 40.9063,7.28125 40.9063,8 C40.9063,8.71875 41.0573,9.28385 41.3594,9.69531 C41.6615,10.1068 42.0833,10.3125 42.625,10.3125 C43.1458,10.3125 43.5599,10.1068 43.8672,9.69531 C44.1745,9.28385 44.3281,8.71875 44.3281,8 C44.3281,7.28125 44.1745,6.71354 43.8672,6.29688 C43.5599,5.88021 43.1458,5.67188 42.625,5.67188 M42.625,4.84375 C43.4792,4.84375 44.151,5.1224 44.6406,5.67969 C45.1302,6.23698 45.375,7.01042 45.375,8 C45.375,8.97917 45.1302,9.75 44.6406,10.3125 C44.151,10.875 43.4792,11.1563 42.625,11.1563 C41.7604,11.1563 41.0833,10.875 40.5938,10.3125 C40.1042,9.75 39.8594,8.97917 39.8594,8 C39.8594,7.01042 40.1042,6.23698 40.5938,5.67969 C41.0833,5.1224 41.7604,4.84375 42.625,4.84375 M50.8438,5.15625 L50.8438,6.09375 C50.5625,5.94792 50.2708,5.84115 49.9688,5.77344 C49.6667,5.70573 49.3542,5.67188 49.0313,5.67188 C48.5417,5.67188 48.1745,5.7474 47.9297,5.89844 C47.6849,6.04948 47.5625,6.27083 47.5625,6.5625 C47.5625,6.79167 47.651,6.97135 47.8281,7.10156 C48.0052,7.23177 48.3594,7.35938 48.8906,7.48438 L49.2188,7.5625 C49.9271,7.70833 50.4271,7.91927 50.7188,8.19531 C51.0104,8.47135 51.1563,8.85417 51.1563,9.34375 C51.1563,9.89583 50.9375,10.3359 50.5,10.6641 C50.0625,10.9922 49.4531,11.1563 48.6719,11.1563 C48.349,11.1563 48.013,11.125 47.6641,11.0625 C47.3151,11 46.9479,10.9063 46.5625,10.7813 L46.5625,9.76563 C46.9271,9.95313 47.2865,10.0938 47.6406,10.1875 C47.9948,10.2813 48.349,10.3281 48.7031,10.3281 C49.1615,10.3281 49.5156,10.2474 49.7656,10.0859 C50.0156,9.92448 50.1406,9.70313 50.1406,9.42188 C50.1406,9.15104 50.0521,8.94271 49.875,8.79688 C49.6979,8.65104 49.3021,8.51563 48.6875,8.39063 L48.3438,8.29688 C47.7292,8.17188 47.2865,7.97656 47.0156,7.71094 C46.7448,7.44531 46.6094,7.07813 46.6094,6.60938 C46.6094,6.04688 46.8099,5.61198 47.2109,5.30469 C47.612,4.9974 48.1823,4.84375 48.9219,4.84375 C49.2865,4.84375 49.6302,4.86979 49.9531,4.92188 C50.276,4.97396 50.5729,5.05208 50.8438,5.15625 "/>
</g>

<g fill="none" stroke="#000000" stroke-opacity="1" stroke-width="1" stroke-linecap="square" stroke-linejoin="bevel" transform="matrix(2,0,0,2,529.872,10)"
font-family="sans" font-size="11" font-weight="100" font-style="normal" 
>
</g>

<g fill="none" stroke="#000000" stroke-opacity="1" stroke-width="1" stroke-linecap="square" stroke-linejoin="bevel" transform="matrix(2,0,0,2,529.872,10)"
font-family="Ubuntu" font-size="11" font-weight="400" font-style="normal" 
>
</g>

<g fill="none" stroke="#000000" stroke-opacity="1" stroke-width="1" stroke-linecap="square" stroke-linejoin="bevel" transform="matrix(2,0,0,2,-15,213)"
font-family="Ubuntu" font-size="11" font-weight="400" font-style="normal" 
>
</g>

<g fill="none" stroke="#000000" stroke-opacity="1" stroke-width="1" stroke-linecap="square" stroke-linejoin="bevel" transform="matrix(2,0,0,2,-15,213)"
font-family="Ubuntu" font-size="11" font-weight="400" font-style="normal" 
>
</g>

<g fill="none" stroke="#000000" stroke-opacity="1" stroke-width="1" stroke-linecap="square" stroke-linejoin="bevel" transform="matrix(2,0,0,2,-15,213)"
font-family="Ubuntu" font-size="11" font-weight="400" font-style="normal" 
>
</g>

<g fill="none" stroke="#000000" stroke-opacity="1" stroke-width="1" stroke-linecap="square" stroke-linejoin="round" transform="matrix(2,0,0,2,-15,213)"
font-family="Ubuntu" font-size="11" font-weight="400" font-style="normal" 
>
<ellipse cx="298.28" cy="-57" rx="80.0932" ry="17.5"/>
</g>

<g fill="none" stroke="#000000" stroke-opacity="1" stroke-width="1" stroke-linecap="square" stroke-linejoin="bevel" transform="matrix(2,0,0,2,-15,213)"
font-family="Ubuntu" font-size="11" font-weight="400" font-style="normal" 
>
</g>

<g fill="none" stroke="#000000" stroke-opacity="1" stroke-width="1" stroke-linecap="square" stroke-linejoin="bevel" transform="matrix(2,0,0,2,498.544,85)"
font-family="Ubuntu" font-size="11" font-weight="400" font-style="normal" 
>
</g>

<g fill="none" stroke="#000000" stroke-opacity="1" stroke-width="1" stroke-linecap="square" stroke-linejoin="bevel" transform="matrix(2,0,0,2,498.544,85)"
font-family="sans" font-size="11" font-weight="100" font-style="normal" 
>
</g>

<g fill="#000000" fill-opacity="1" stroke="#000000" stroke-opacity="1" stroke-width="1" stroke-linecap="square" stroke-linejoin="round" transform="matrix(2,0,0,2,498.544,85)"
font-family="sans" font-size="11" font-weight="100" font-style="normal" 
>
<path vector-effect="none" fill-rule="nonzero" d="M2.79688,2.98438 L3.70313,2.98438 L0.90625,12.0156 L0,12.0156 L2.79688,2.98438 M9.42188,6.14063 C9.67188,5.69271 9.96875,5.36458 10.3125,5.15625 C10.6563,4.94792 11.0625,4.84375 11.5313,4.84375 C12.1563,4.84375 12.638,5.0625 12.9766,5.5 C13.3151,5.9375 13.4844,6.5625 13.4844,7.375 L13.4844,11 L12.4844,11 L12.4844,7.40625 C12.4844,6.82292 12.3828,6.39323 12.1797,6.11719 C11.9766,5.84115 11.6667,5.70313 11.25,5.70313 C10.7396,5.70313 10.3359,5.8724 10.0391,6.21094 C9.74219,6.54948 9.59375,7.01042 9.59375,7.59375 L9.59375,11 L8.59375,11 L8.59375,7.40625 C8.59375,6.82292 8.49219,6.39323 8.28906,6.11719 C8.08594,5.84115 7.77083,5.70313 7.34375,5.70313 C6.84375,5.70313 6.44531,5.8724 6.14844,6.21094 C5.85156,6.54948 5.70313,7.01042 5.70313,7.59375 L5.70313,11 L4.70313,11 L4.70313,4.98438 L5.70313,4.98438 L5.70313,5.92188 C5.92188,5.54688 6.1901,5.27344 6.50781,5.10156 C6.82552,4.92969 7.19792,4.84375 7.625,4.84375 C8.0625,4.84375 8.4349,4.95313 8.74219,5.17188 C9.04948,5.39063 9.27604,5.71354 9.42188,6.14063 M15.4375,4.98438 L16.4375,4.98438 L16.4375,11 L15.4375,11 L15.4375,4.98438 M15.4375,2.64063 L16.4375,2.64063 L16.4375,3.89063 L15.4375,3.89063 L15.4375,2.64063 M22.8125,5.21875 L22.8125,6.14063 C22.5417,5.98438 22.2656,5.86719 21.9844,5.78906 C21.7031,5.71094 21.4167,5.67188 21.125,5.67188 C20.4896,5.67188 19.9948,5.875 19.6406,6.28125 C19.2865,6.6875 19.1094,7.26042 19.1094,8 C19.1094,8.72917 19.2865,9.29688 19.6406,9.70313 C19.9948,10.1094 20.4896,10.3125 21.125,10.3125 C21.4167,10.3125 21.7031,10.276 21.9844,10.2031 C22.2656,10.1302 22.5417,10.0156 22.8125,9.85938 L22.8125,10.7656 C22.5417,10.901 22.2578,11 21.9609,11.0625 C21.6641,11.125 21.349,11.1563 21.0156,11.1563 C20.1094,11.1563 19.3906,10.8724 18.8594,10.3047 C18.3281,9.73698 18.0625,8.96875 18.0625,8 C18.0625,7.02083 18.3307,6.25 18.8672,5.6875 C19.4036,5.125 20.1406,4.84375 21.0781,4.84375 C21.3906,4.84375 21.6901,4.875 21.9766,4.9375 C22.263,5 22.5417,5.09375 22.8125,5.21875 M28.0156,5.90625 C27.9115,5.84375 27.7943,5.79688 27.6641,5.76563 C27.5339,5.73438 27.3906,5.71875 27.2344,5.71875 C26.6719,5.71875 26.2422,5.90104 25.9453,6.26563 C25.6484,6.63021 25.5,7.15104 25.5,7.82813 L25.5,11 L24.5,11 L24.5,4.98438 L25.5,4.98438 L25.5,5.92188 C25.6979,5.55729 25.9635,5.28646 26.2969,5.10938 C26.6302,4.93229 27.0365,4.84375 27.5156,4.84375 C27.5885,4.84375 27.6641,4.84635 27.7422,4.85156 C27.8203,4.85677 27.9115,4.86979 28.0156,4.89063 L28.0156,5.90625 M31.3906,5.67188 C30.8594,5.67188 30.4401,5.88021 30.1328,6.29688 C29.8255,6.71354 29.6719,7.28125 29.6719,8 C29.6719,8.71875 29.8229,9.28385 30.125,9.69531 C30.4271,10.1068 30.849,10.3125 31.3906,10.3125 C31.9115,10.3125 32.3255,10.1068 32.6328,9.69531 C32.9401,9.28385 33.0938,8.71875 33.0938,8 C33.0938,7.28125 32.9401,6.71354 32.6328,6.29688 C32.3255,5.88021 31.9115,5.67188 31.3906,5.67188 M31.3906,4.84375 C32.2448,4.84375 32.9167,5.1224 33.4063,5.67969 C33.8958,6.23698 34.1406,7.01042 34.1406,8 C34.1406,8.97917 33.8958,9.75 33.4063,10.3125 C32.9167,10.875 32.2448,11.1563 31.3906,11.1563 C30.526,11.1563 29.849,10.875 29.3594,10.3125 C28.8698,9.75 28.625,8.97917 28.625,8 C28.625,7.01042 28.8698,6.23698 29.3594,5.67969 C29.849,5.1224 30.526,4.84375 31.3906,4.84375 M39.25,5.90625 C39.1458,5.84375 39.0286,5.79688 38.8984,5.76563 C38.7682,5.73438 38.625,5.71875 38.4688,5.71875 C37.9063,5.71875 37.4766,5.90104 37.1797,6.26563 C36.8828,6.63021 36.7344,7.15104 36.7344,7.82813 L36.7344,11 L35.7344,11 L35.7344,4.98438 L36.7344,4.98438 L36.7344,5.92188 C36.9323,5.55729 37.1979,5.28646 37.5313,5.10938 C37.8646,4.93229 38.2708,4.84375 38.75,4.84375 C38.8229,4.84375 38.8984,4.84635 38.9766,4.85156 C39.0547,4.85677 39.1458,4.86979 39.25,4.89063 L39.25,5.90625 M42.625,5.67188 C42.0938,5.67188 41.6745,5.88021 41.3672,6.29688 C41.0599,6.71354 40.9063,7.28125 40.9063,8 C40.9063,8.71875 41.0573,9.28385 41.3594,9.69531 C41.6615,10.1068 42.0833,10.3125 42.625,10.3125 C43.1458,10.3125 43.5599,10.1068 43.8672,9.69531 C44.1745,9.28385 44.3281,8.71875 44.3281,8 C44.3281,7.28125 44.1745,6.71354 43.8672,6.29688 C43.5599,5.88021 43.1458,5.67188 42.625,5.67188 M42.625,4.84375 C43.4792,4.84375 44.151,5.1224 44.6406,5.67969 C45.1302,6.23698 45.375,7.01042 45.375,8 C45.375,8.97917 45.1302,9.75 44.6406,10.3125 C44.151,10.875 43.4792,11.1563 42.625,11.1563 C41.7604,11.1563 41.0833,10.875 40.5938,10.3125 C40.1042,9.75 39.8594,8.97917 39.8594,8 C39.8594,7.01042 40.1042,6.23698 40.5938,5.67969 C41.0833,5.1224 41.7604,4.84375 42.625,4.84375 M50.8438,5.15625 L50.8438,6.09375 C50.5625,5.94792 50.2708,5.84115 49.9688,5.77344 C49.6667,5.70573 49.3542,5.67188 49.0313,5.67188 C48.5417,5.67188 48.1745,5.7474 47.9297,5.89844 C47.6849,6.04948 47.5625,6.27083 47.5625,6.5625 C47.5625,6.79167 47.651,6.97135 47.8281,7.10156 C48.0052,7.23177 48.3594,7.35938 48.8906,7.48438 L49.2188,7.5625 C49.9271,7.70833 50.4271,7.91927 50.7188,8.19531 C51.0104,8.47135 51.1563,8.85417 51.1563,9.34375 C51.1563,9.89583 50.9375,10.3359 50.5,10.6641 C50.0625,10.9922 49.4531,11.1563 48.6719,11.1563 C48.349,11.1563 48.013,11.125 47.6641,11.0625 C47.3151,11 46.9479,10.9063 46.5625,10.7813 L46.5625,9.76563 C46.9271,9.95313 47.2865,10.0938 47.6406,10.1875 C47.9948,10.2813 48.349,10.3281 48.7031,10.3281 C49.1615,10.3281 49.5156,10.2474 49.7656,10.0859 C50.0156,9.92448 50.1406,9.70313 50.1406,9.42188 C50.1406,9.15104 50.0521,8.94271 49.875,8.79688 C49.6979,8.65104 49.3021,8.51563 48.6875,8.39063 L48.3438,8.29688 C47.7292,8.17188 47.2865,7.97656 47.0156,7.71094 C46.7448,7.44531 46.6094,7.07813 46.6094,6.60938 C46.6094,6.04688 46.8099,5.61198 47.2109,5.30469 C47.612,4.9974 48.1823,4.84375 48.9219,4.84375 C49.2865,4.84375 49.6302,4.86979 49.9531,4.92188 C50.276,4.97396 50.5729,5.05208 50.8438,5.15625 M54.4844,2.98438 L55.3906,2.98438 L52.5938,12.0156 L51.6875,12.0156 L54.4844,2.98438 M57.3906,10.0938 L57.3906,13.2813 L56.3906,13.2813 L56.3906,4.98438 L57.3906,4.98438 L57.3906,5.89063 C57.5885,5.53646 57.8464,5.27344 58.1641,5.10156 C58.4818,4.92969 58.8646,4.84375 59.3125,4.84375 C60.0417,4.84375 60.6328,5.13281 61.0859,5.71094 C61.5391,6.28906 61.7656,7.05208 61.7656,8 C61.7656,8.94792 61.5391,9.71094 61.0859,10.2891 C60.6328,10.8672 60.0417,11.1563 59.3125,11.1563 C58.8646,11.1563 58.4818,11.0703 58.1641,10.8984 C57.8464,10.7266 57.5885,10.4583 57.3906,10.0938 M60.75,8 C60.75,7.27083 60.599,6.70052 60.2969,6.28906 C59.9948,5.8776 59.5833,5.67188 59.0625,5.67188 C58.5417,5.67188 58.1328,5.8776 57.8359,6.28906 C57.5391,6.70052 57.3906,7.27083 57.3906,8 C57.3906,8.72917 57.5391,9.29948 57.8359,9.71094 C58.1328,10.1224 58.5417,10.3281 59.0625,10.3281 C59.5833,10.3281 59.9948,10.1224 60.2969,9.71094 C60.599,9.29948 60.75,8.72917 60.75,8 M65.7344,5.67188 C65.2031,5.67188 64.7839,5.88021 64.4766,6.29688 C64.1693,6.71354 64.0156,7.28125 64.0156,8 C64.0156,8.71875 64.1667,9.28385 64.4688,9.69531 C64.7708,10.1068 65.1927,10.3125 65.7344,10.3125 C66.2552,10.3125 66.6693,10.1068 66.9766,9.69531 C67.2839,9.28385 67.4375,8.71875 67.4375,8 C67.4375,7.28125 67.2839,6.71354 66.9766,6.29688 C66.6693,5.88021 66.2552,5.67188 65.7344,5.67188 M65.7344,4.84375 C66.5885,4.84375 67.2604,5.1224 67.75,5.67969 C68.2396,6.23698 68.4844,7.01042 68.4844,8 C68.4844,8.97917 68.2396,9.75 67.75,10.3125 C67.2604,10.875 66.5885,11.1563 65.7344,11.1563 C64.8698,11.1563 64.1927,10.875 63.7031,10.3125 C63.2135,9.75 62.9688,8.97917 62.9688,8 C62.9688,7.01042 63.2135,6.23698 63.7031,5.67969 C64.1927,5.1224 64.8698,4.84375 65.7344,4.84375 M75.1094,7.375 L75.1094,11 L74.125,11 L74.125,7.40625 C74.125,6.83333 74.0156,6.40625 73.7969,6.125 C73.5781,5.84375 73.2448,5.70313 72.7969,5.70313 C72.2656,5.70313 71.8464,5.8724 71.5391,6.21094 C71.2318,6.54948 71.0781,7.01042 71.0781,7.59375 L71.0781,11 L70.0781,11 L70.0781,4.98438 L71.0781,4.98438 L71.0781,5.92188 C71.3073,5.55729 71.5833,5.28646 71.9063,5.10938 C72.2292,4.93229 72.599,4.84375 73.0156,4.84375 C73.7031,4.84375 74.224,5.05729 74.5781,5.48438 C74.9323,5.91146 75.1094,6.54167 75.1094,7.375 M81.0469,7.92188 C81.0469,7.20313 80.8984,6.64844 80.6016,6.25781 C80.3047,5.86719 79.8906,5.67188 79.3594,5.67188 C78.8281,5.67188 78.4141,5.86719 78.1172,6.25781 C77.8203,6.64844 77.6719,7.20313 77.6719,7.92188 C77.6719,8.63021 77.8203,9.18229 78.1172,9.57813 C78.4141,9.97396 78.8281,10.1719 79.3594,10.1719 C79.8906,10.1719 80.3047,9.97396 80.6016,9.57813 C80.8984,9.18229 81.0469,8.63021 81.0469,7.92188 M82.0313,10.25 C82.0313,11.2813 81.8047,12.0443 81.3516,12.5391 C80.8984,13.0339 80.2031,13.2813 79.2656,13.2813 C78.9115,13.2813 78.5807,13.2552 78.2734,13.2031 C77.9661,13.151 77.6667,13.0729 77.375,12.9688 L77.375,12.0156 C77.6667,12.1719 77.9531,12.2865 78.2344,12.3594 C78.5156,12.4323 78.8073,12.4688 79.1094,12.4688 C79.7552,12.4688 80.2396,12.2995 80.5625,11.9609 C80.8854,11.6224 81.0469,11.1146 81.0469,10.4375 L81.0469,9.9375 C80.8385,10.2917 80.5755,10.5573 80.2578,10.7344 C79.9401,10.9115 79.5573,11 79.1094,11 C78.3698,11 77.776,10.7188 77.3281,10.1563 C76.8802,9.59375 76.6563,8.84896 76.6563,7.92188 C76.6563,6.99479 76.8802,6.25 77.3281,5.6875 C77.776,5.125 78.3698,4.84375 79.1094,4.84375 C79.5573,4.84375 79.9401,4.92969 80.2578,5.10156 C80.5755,5.27344 80.8385,5.53646 81.0469,5.89063 L81.0469,4.98438 L82.0313,4.98438 L82.0313,10.25"/>
</g>

<g fill="none" stroke="#000000" stroke-opacity="1" stroke-width="1" stroke-linecap="square" stroke-linejoin="bevel" transform="matrix(2,0,0,2,498.544,85)"
font-family="sans" font-size="11" font-weight="100" font-style="normal" 
>
</g>

<g fill="none" stroke="#000000" stroke-opacity="1" stroke-width="1" stroke-linecap="square" stroke-linejoin="bevel" transform="matrix(2,0,0,2,498.544,85)"
font-family="Ubuntu" font-size="11" font-weight="400" font-style="normal" 
>
</g>

<g fill="none" stroke="#000000" stroke-opacity="1" stroke-width="1" stroke-linecap="square" stroke-linejoin="bevel" transform="matrix(2,0,0,2,-15,213)"
font-family="Ubuntu" font-size="11" font-weight="400" font-style="normal" 
>
</g>

<g fill="none" stroke="#000000" stroke-opacity="1" stroke-width="1" stroke-linecap="square" stroke-linejoin="bevel" transform="matrix(2,0,0,2,-15,213)"
font-family="Ubuntu" font-size="11" font-weight="400" font-style="normal" 
>
</g>

<g fill="none" stroke="#000000" stroke-opacity="1" stroke-width="1" stroke-linecap="square" stroke-linejoin="bevel" transform="matrix(2,0,0,2,-15,213)"
font-family="Ubuntu" font-size="11" font-weight="400" font-style="normal" 
>
</g>

<g fill="none" stroke="#000000" stroke-opacity="1" stroke-width="1" stroke-linecap="square" stroke-linejoin="round" transform="matrix(2,0,0,2,-15,213)"
font-family="Ubuntu" font-size="11" font-weight="400" font-style="normal" 
>
<ellipse cx="298.28" cy="-57" rx="80.0932" ry="17.5"/>
</g>

<g fill="none" stroke="#000000" stroke-opacity="1" stroke-width="1" stroke-linecap="square" stroke-linejoin="bevel" transform="matrix(2,0,0,2,-15,213)"
font-family="Ubuntu" font-size="11" font-weight="400" font-style="normal" 
>
</g>

<g fill="none" stroke="#000000" stroke-opacity="1" stroke-width="1" stroke-linecap="square" stroke-linejoin="bevel" transform="matrix(2,0,0,2,498.544,85)"
font-family="Ubuntu" font-size="11" font-weight="400" font-style="normal" 
>
</g>

<g fill="none" stroke="#000000" stroke-opacity="1" stroke-width="1" stroke-linecap="square" stroke-linejoin="bevel" transform="matrix(2,0,0,2,498.544,85)"
font-family="sans" font-size="11" font-weight="100" font-style="normal" 
>
</g>

<g fill="#000000" fill-opacity="1" stroke="#000000" stroke-opacity="1" stroke-width="1" stroke-linecap="square" stroke-linejoin="round" transform="matrix(2,0,0,2,498.544,85)"
font-family="sans" font-size="11" font-weight="100" font-style="normal" 
>
<path vector-effect="none" fill-rule="nonzero" d="M2.79688,2.98438 L3.70313,2.98438 L0.90625,12.0156 L0,12.0156 L2.79688,2.98438 M9.42188,6.14063 C9.67188,5.69271 9.96875,5.36458 10.3125,5.15625 C10.6563,4.94792 11.0625,4.84375 11.5313,4.84375 C12.1563,4.84375 12.638,5.0625 12.9766,5.5 C13.3151,5.9375 13.4844,6.5625 13.4844,7.375 L13.4844,11 L12.4844,11 L12.4844,7.40625 C12.4844,6.82292 12.3828,6.39323 12.1797,6.11719 C11.9766,5.84115 11.6667,5.70313 11.25,5.70313 C10.7396,5.70313 10.3359,5.8724 10.0391,6.21094 C9.74219,6.54948 9.59375,7.01042 9.59375,7.59375 L9.59375,11 L8.59375,11 L8.59375,7.40625 C8.59375,6.82292 8.49219,6.39323 8.28906,6.11719 C8.08594,5.84115 7.77083,5.70313 7.34375,5.70313 C6.84375,5.70313 6.44531,5.8724 6.14844,6.21094 C5.85156,6.54948 5.70313,7.01042 5.70313,7.59375 L5.70313,11 L4.70313,11 L4.70313,4.98438 L5.70313,4.98438 L5.70313,5.92188 C5.92188,5.54688 6.1901,5.27344 6.50781,5.10156 C6.82552,4.92969 7.19792,4.84375 7.625,4.84375 C8.0625,4.84375 8.4349,4.95313 8.74219,5.17188 C9.04948,5.39063 9.27604,5.71354 9.42188,6.14063 M15.4375,4.98438 L16.4375,4.98438 L16.4375,11 L15.4375,11 L15.4375,4.98438 M15.4375,2.64063 L16.4375,2.64063 L16.4375,3.89063 L15.4375,3.89063 L15.4375,2.64063 M22.8125,5.21875 L22.8125,6.14063 C22.5417,5.98438 22.2656,5.86719 21.9844,5.78906 C21.7031,5.71094 21.4167,5.67188 21.125,5.67188 C20.4896,5.67188 19.9948,5.875 19.6406,6.28125 C19.2865,6.6875 19.1094,7.26042 19.1094,8 C19.1094,8.72917 19.2865,9.29688 19.6406,9.70313 C19.9948,10.1094 20.4896,10.3125 21.125,10.3125 C21.4167,10.3125 21.7031,10.276 21.9844,10.2031 C22.2656,10.1302 22.5417,10.0156 22.8125,9.85938 L22.8125,10.7656 C22.5417,10.901 22.2578,11 21.9609,11.0625 C21.6641,11.125 21.349,11.1563 21.0156,11.1563 C20.1094,11.1563 19.3906,10.8724 18.8594,10.3047 C18.3281,9.73698 18.0625,8.96875 18.0625,8 C18.0625,7.02083 18.3307,6.25 18.8672,5.6875 C19.4036,5.125 20.1406,4.84375 21.0781,4.84375 C21.3906,4.84375 21.6901,4.875 21.9766,4.9375 C22.263,5 22.5417,5.09375 22.8125,5.21875 M28.0156,5.90625 C27.9115,5.84375 27.7943,5.79688 27.6641,5.76563 C27.5339,5.73438 27.3906,5.71875 27.2344,5.71875 C26.6719,5.71875 26.2422,5.90104 25.9453,6.26563 C25.6484,6.63021 25.5,7.15104 25.5,7.82813 L25.5,11 L24.5,11 L24.5,4.98438 L25.5,4.98438 L25.5,5.92188 C25.6979,5.55729 25.9635,5.28646 26.2969,5.10938 C26.6302,4.93229 27.0365,4.84375 27.5156,4.84375 C27.5885,4.84375 27.6641,4.84635 27.7422,4.85156 C27.8203,4.85677 27.9115,4.86979 28.0156,4.89063 L28.0156,5.90625 M31.3906,5.67188 C30.8594,5.67188 30.4401,5.88021 30.1328,6.29688 C29.8255,6.71354 29.6719,7.28125 29.6719,8 C29.6719,8.71875 29.8229,9.28385 30.125,9.69531 C30.4271,10.1068 30.849,10.3125 31.3906,10.3125 C31.9115,10.3125 32.3255,10.1068 32.6328,9.69531 C32.9401,9.28385 33.0938,8.71875 33.0938,8 C33.0938,7.28125 32.9401,6.71354 32.6328,6.29688 C32.3255,5.88021 31.9115,5.67188 31.3906,5.67188 M31.3906,4.84375 C32.2448,4.84375 32.9167,5.1224 33.4063,5.67969 C33.8958,6.23698 34.1406,7.01042 34.1406,8 C34.1406,8.97917 33.8958,9.75 33.4063,10.3125 C32.9167,10.875 32.2448,11.1563 31.3906,11.1563 C30.526,11.1563 29.849,10.875 29.3594,10.3125 C28.8698,9.75 28.625,8.97917 28.625,8 C28.625,7.01042 28.8698,6.23698 29.3594,5.67969 C29.849,5.1224 30.526,4.84375 31.3906,4.84375 M39.25,5.90625 C39.1458,5.84375 39.0286,5.79688 38.8984,5.76563 C38.7682,5.73438 38.625,5.71875 38.4688,5.71875 C37.9063,5.71875 37.4766,5.90104 37.1797,6.26563 C36.8828,6.63021 36.7344,7.15104 36.7344,7.82813 L36.7344,11 L35.7344,11 L35.7344,4.98438 L36.7344,4.98438 L36.7344,5.92188 C36.9323,5.55729 37.1979,5.28646 37.5313,5.10938 C37.8646,4.93229 38.2708,4.84375 38.75,4.84375 C38.8229,4.84375 38.8984,4.84635 38.9766,4.85156 C39.0547,4.85677 39.1458,4.86979 39.25,4.89063 L39.25,5.90625 M42.625,5.67188 C42.0938,5.67188 41.6745,5.88021 41.3672,6.29688 C41.0599,6.71354 40.9063,7.28125 40.9063,8 C40.9063,8.71875 41.0573,9.28385 41.3594,9.69531 C41.6615,10.1068 42.0833,10.3125 42.625,10.3125 C43.1458,10.3125 43.5599,10.1068 43.8672,9.69531 C44.1745,9.28385 44.3281,8.71875 44.3281,8 C44.3281,7.28125 44.1745,6.71354 43.8672,6.29688 C43.5599,5.88021 43.1458,5.67188 42.625,5.67188 M42.625,4.84375 C43.4792,4.84375 44.151,5.1224 44.6406,5.67969 C45.1302,6.23698 45.375,7.01042 45.375,8 C45.375,8.97917 45.1302,9.75 44.6406,10.3125 C44.151,10.875 43.4792,11.1563 42.625,11.1563 C41.7604,11.1563 41.0833,10.875 40.5938,10.3125 C40.1042,9.75 39.8594,8.97917 39.8594,8 C39.8594,7.01042 40.1042,6.23698 40.5938,5.67969 C41.0833,5.1224 41.7604,4.84375 42.625,4.84375 M50.8438,5.15625 L50.8438,6.09375 C50.5625,5.94792 50.2708,5.84115 49.9688,5.77344 C49.6667,5.70573 49.3542,5.67188 49.0313,5.67188 C48.5417,5.67188 48.1745,5.7474 47.9297,5.89844 C47.6849,6.04948 47.5625,6.27083 47.5625,6.5625 C47.5625,6.79167 47.651,6.97135 47.8281,7.10156 C48.0052,7.23177 48.3594,7.35938 48.8906,7.48438 L49.2188,7.5625 C49.9271,7.70833 50.4271,7.91927 50.7188,8.19531 C51.0104,8.47135 51.1563,8.85417 51.1563,9.34375 C51.1563,9.89583 50.9375,10.3359 50.5,10.6641 C50.0625,10.9922 49.4531,11.1563 48.6719,11.1563 C48.349,11.1563 48.013,11.125 47.6641,11.0625 C47.3151,11 46.9479,10.9063 46.5625,10.7813 L46.5625,9.76563 C46.9271,9.95313 47.2865,10.0938 47.6406,10.1875 C47.9948,10.2813 48.349,10.3281 48.7031,10.3281 C49.1615,10.3281 49.5156,10.2474 49.7656,10.0859 C50.0156,9.92448 50.1406,9.70313 50.1406,9.42188 C50.1406,9.15104 50.0521,8.94271 49.875,8.79688 C49.6979,8.65104 49.3021,8.51563 48.6875,8.39063 L48.3438,8.29688 C47.7292,8.17188 47.2865,7.97656 47.0156,7.71094 C46.7448,7.44531 46.6094,7.07813 46.6094,6.60938 C46.6094,6.04688 46.8099,5.61198 47.2109,5.30469 C47.612,4.9974 48.1823,4.84375 48.9219,4.84375 C49.2865,4.84375 49.6302,4.86979 49.9531,4.92188 C50.276,4.97396 50.5729,5.05208 50.8438,5.15625 M54.4844,2.98438 L55.3906,2.98438 L52.5938,12.0156 L51.6875,12.0156 L54.4844,2.98438 M57.3906,10.0938 L57.3906,13.2813 L56.3906,13.2813 L56.3906,4.98438 L57.3906,4.98438 L57.3906,5.89063 C57.5885,5.53646 57.8464,5.27344 58.1641,5.10156 C58.4818,4.92969 58.8646,4.84375 59.3125,4.84375 C60.0417,4.84375 60.6328,5.13281 61.0859,5.71094 C61.5391,6.28906 61.7656,7.05208 61.7656,8 C61.7656,8.94792 61.5391,9.71094 61.0859,10.2891 C60.6328,10.8672 60.0417,11.1563 59.3125,11.1563 C58.8646,11.1563 58.4818,11.0703 58.1641,10.8984 C57.8464,10.7266 57.5885,10.4583 57.3906,10.0938 M60.75,8 C60.75,7.27083 60.599,6.70052 60.2969,6.28906 C59.9948,5.8776 59.5833,5.67188 59.0625,5.67188 C58.5417,5.67188 58.1328,5.8776 57.8359,6.28906 C57.5391,6.70052 57.3906,7.27083 57.3906,8 C57.3906,8.72917 57.5391,9.29948 57.8359,9.71094 C58.1328,10.1224 58.5417,10.3281 59.0625,10.3281 C59.5833,10.3281 59.9948,10.1224 60.2969,9.71094 C60.599,9.29948 60.75,8.72917 60.75,8 M65.7344,5.67188 C65.2031,5.67188 64.7839,5.88021 64.4766,6.29688 C64.1693,6.71354 64.0156,7.28125 64.0156,8 C64.0156,8.71875 64.1667,9.28385 64.4688,9.69531 C64.7708,10.1068 65.1927,10.3125 65.7344,10.3125 C66.2552,10.3125 66.6693,10.1068 66.9766,9.69531 C67.2839,9.28385 67.4375,8.71875 67.4375,8 C67.4375,7.28125 67.2839,6.71354 66.9766,6.29688 C66.6693,5.88021 66.2552,5.67188 65.7344,5.67188 M65.7344,4.84375 C66.5885,4.84375 67.2604,5.1224 67.75,5.67969 C68.2396,6.23698 68.4844,7.01042 68.4844,8 C68.4844,8.97917 68.2396,9.75 67.75,10.3125 C67.2604,10.875 66.5885,11.1563 65.7344,11.1563 C64.8698,11.1563 64.1927,10.875 63.7031,10.3125 C63.2135,9.75 62.9688,8.97917 62.9688,8 C62.9688,7.01042 63.2135,6.23698 63.7031,5.67969 C64.1927,5.1224 64.8698,4.84375 65.7344,4.84375 M75.1094,7.375 L75.1094,11 L74.125,11 L74.125,7.40625 C74.125,6.83333 74.0156,6.40625 73.7969,6.125 C73.5781,5.84375 73.2448,5.70313 72.7969,5.70313 C72.2656,5.70313 71.8464,5.8724 71.5391,6.21094 C71.2318,6.54948 71.0781,7.01042 71.0781,7.59375 L71.0781,11 L70.0781,11 L70.0781,4.98438 L71.0781,4.98438 L71.0781,5.92188 C71.3073,5.55729 71.5833,5.28646 71.9063,5.10938 C72.2292,4.93229 72.599,4.84375 73.0156,4.84375 C73.7031,4.84375 74.224,5.05729 74.5781,5.48438 C74.9323,5.91146 75.1094,6.54167 75.1094,7.375 M81.0469,7.92188 C81.0469,7.20313 80.8984,6.64844 80.6016,6.25781 C80.3047,5.86719 79.8906,5.67188 79.3594,5.67188 C78.8281,5.67188 78.4141,5.86719 78.1172,6.25781 C77.8203,6.64844 77.6719,7.20313 77.6719,7.92188 C77.6719,8.63021 77.8203,9.18229 78.1172,9.57813 C78.4141,9.97396 78.8281,10.1719 79.3594,10.1719 C79.8906,10.1719 80.3047,9.97396 80.6016,9.57813 C80.8984,9.18229 81.0469,8.63021 81.0469,7.92188 M82.0313,10.25 C82.0313,11.2813 81.8047,12.0443 81.3516,12.5391 C80.8984,13.0339 80.2031,13.2813 79.2656,13.2813 C78.9115,13.2813 78.5807,13.2552 78.2734,13.2031 C77.9661,13.151 77.6667,13.0729 77.375,12.9688 L77.375,12.0156 C77.6667,12.1719 77.9531,12.2865 78.2344,12.3594 C78.5156,12.4323 78.8073,12.4688 79.1094,12.4688 C79.7552,12.4688 80.2396,12.2995 80.5625,11.9609 C80.8854,11.6224 81.0469,11.1146 81.0469,10.4375 L81.0469,9.9375 C80.8385,10.2917 80.5755,10.5573 80.2578,10.7344 C79.9401,10.9115 79.5573,11 79.1094,11 C78.3698,11 77.776,10.7188 77.3281,10.1563 C76.8802,9.59375 76.6563,8.84896 76.6563,7.92188 C76.6563,6.99479 76.8802,6.25 77.3281,5.6875 C77.776,5.125 78.3698,4.84375 79.1094,4.84375 C79.5573,4.84375 79.9401,4.92969 80.2578,5.10156 C80.5755,5.27344 80.8385,5.53646 81.0469,5.89063 L81.0469,4.98438 L82.0313,4.98438 L82.0313,10.25"/>
</g>

<g fill="none" stroke="#000000" stroke-opacity="1" stroke-width="1" stroke-linecap="square" stroke-linejoin="bevel" transform="matrix(2,0,0,2,498.544,85)"
font-family="sans" font-size="11" font-weight="100" font-style="normal" 
>
</g>

<g fill="none" stroke="#000000" stroke-opacity="1" stroke-width="1" stroke-linecap="square" stroke-linejoin="bevel" transform="matrix(2,0,0,2,498.544,85)"
font-family="Ubuntu" font-size="11" font-weight="400" font-style="normal" 
>
</g>

<g fill="none" stroke="#000000" stroke-opacity="1" stroke-width="1" stroke-linecap="square" stroke-linejoin="bevel" transform="matrix(2,0,0,2,-15,213)"
font-family="Ubuntu" font-size="11" font-weight="400" font-style="normal" 
>
</g>

<g fill="none" stroke="#000000" stroke-opacity="1" stroke-width="1" stroke-linecap="square" stroke-linejoin="bevel" transform="matrix(2,0,0,2,-15,213)"
font-family="Ubuntu" font-size="11" font-weight="400" font-style="normal" 
>
</g>

<g fill="none" stroke="#000000" stroke-opacity="1" stroke-width="1" stroke-linecap="square" stroke-linejoin="bevel" transform="matrix(2,0,0,2,-15,213)"
font-family="Ubuntu" font-size="11" font-weight="400" font-style="normal" 
>
</g>

<g fill="none" stroke="#000000" stroke-opacity="1" stroke-width="1" stroke-linecap="square" stroke-linejoin="round" transform="matrix(2,0,0,2,-15,213)"
font-family="Ubuntu" font-size="11" font-weight="400" font-style="normal" 
>
<rect x="148.19" y="-74.5" width="53" height="35"/>
</g>

<g fill="none" stroke="#000000" stroke-opacity="1" stroke-width="1" stroke-linecap="square" stroke-linejoin="bevel" transform="matrix(2,0,0,2,-15,213)"
font-family="Ubuntu" font-size="11" font-weight="400" font-style="normal" 
>
</g>

<g fill="none" stroke="#000000" stroke-opacity="1" stroke-width="1" stroke-linecap="square" stroke-linejoin="bevel" transform="matrix(2,0,0,2,306.724,85)"
font-family="Ubuntu" font-size="11" font-weight="400" font-style="normal" 
>
</g>

<g fill="none" stroke="#000000" stroke-opacity="1" stroke-width="1" stroke-linecap="square" stroke-linejoin="bevel" transform="matrix(2,0,0,2,306.724,85)"
font-family="sans" font-size="11" font-weight="100" font-style="normal" 
>
</g>

<g fill="#000000" fill-opacity="1" stroke="#000000" stroke-opacity="1" stroke-width="1" stroke-linecap="square" stroke-linejoin="round" transform="matrix(2,0,0,2,306.724,85)"
font-family="sans" font-size="11" font-weight="100" font-style="normal" 
>
<path vector-effect="none" fill-rule="nonzero" d="M2.79688,2.98438 L3.70313,2.98438 L0.90625,12.0156 L0,12.0156 L2.79688,2.98438 M5.70313,10.0938 L5.70313,13.2813 L4.70313,13.2813 L4.70313,4.98438 L5.70313,4.98438 L5.70313,5.89063 C5.90104,5.53646 6.15885,5.27344 6.47656,5.10156 C6.79427,4.92969 7.17708,4.84375 7.625,4.84375 C8.35417,4.84375 8.94531,5.13281 9.39844,5.71094 C9.85156,6.28906 10.0781,7.05208 10.0781,8 C10.0781,8.94792 9.85156,9.71094 9.39844,10.2891 C8.94531,10.8672 8.35417,11.1563 7.625,11.1563 C7.17708,11.1563 6.79427,11.0703 6.47656,10.8984 C6.15885,10.7266 5.90104,10.4583 5.70313,10.0938 M9.0625,8 C9.0625,7.27083 8.91146,6.70052 8.60938,6.28906 C8.30729,5.8776 7.89583,5.67188 7.375,5.67188 C6.85417,5.67188 6.44531,5.8776 6.14844,6.28906 C5.85156,6.70052 5.70313,7.27083 5.70313,8 C5.70313,8.72917 5.85156,9.29948 6.14844,9.71094 C6.44531,10.1224 6.85417,10.3281 7.375,10.3281 C7.89583,10.3281 8.30729,10.1224 8.60938,9.71094 C8.91146,9.29948 9.0625,8.72917 9.0625,8 M11.7031,4.98438 L12.7031,4.98438 L12.7031,11 L11.7031,11 L11.7031,4.98438 M11.7031,2.64063 L12.7031,2.64063 L12.7031,3.89063 L11.7031,3.89063 L11.7031,2.64063 M19.75,7.375 L19.75,11 L18.7656,11 L18.7656,7.40625 C18.7656,6.83333 18.6563,6.40625 18.4375,6.125 C18.2188,5.84375 17.8854,5.70313 17.4375,5.70313 C16.9063,5.70313 16.487,5.8724 16.1797,6.21094 C15.8724,6.54948 15.7188,7.01042 15.7188,7.59375 L15.7188,11 L14.7188,11 L14.7188,4.98438 L15.7188,4.98438 L15.7188,5.92188 C15.9479,5.55729 16.224,5.28646 16.5469,5.10938 C16.8698,4.93229 17.2396,4.84375 17.6563,4.84375 C18.3438,4.84375 18.8646,5.05729 19.2188,5.48438 C19.5729,5.91146 19.75,6.54167 19.75,7.375 M25.6875,7.92188 C25.6875,7.20313 25.5391,6.64844 25.2422,6.25781 C24.9453,5.86719 24.5313,5.67188 24,5.67188 C23.4688,5.67188 23.0547,5.86719 22.7578,6.25781 C22.4609,6.64844 22.3125,7.20313 22.3125,7.92188 C22.3125,8.63021 22.4609,9.18229 22.7578,9.57813 C23.0547,9.97396 23.4688,10.1719 24,10.1719 C24.5313,10.1719 24.9453,9.97396 25.2422,9.57813 C25.5391,9.18229 25.6875,8.63021 25.6875,7.92188 M26.6719,10.25 C26.6719,11.2813 26.4453,12.0443 25.9922,12.5391 C25.5391,13.0339 24.8438,13.2813 23.9063,13.2813 C23.5521,13.2813 23.2214,13.2552 22.9141,13.2031 C22.6068,13.151 22.3073,13.0729 22.0156,12.9688 L22.0156,12.0156 C22.3073,12.1719 22.5938,12.2865 22.875,12.3594 C23.1563,12.4323 23.4479,12.4688 23.75,12.4688 C24.3958,12.4688 24.8802,12.2995 25.2031,11.9609 C25.526,11.6224 25.6875,11.1146 25.6875,10.4375 L25.6875,9.9375 C25.4792,10.2917 25.2161,10.5573 24.8984,10.7344 C24.5807,10.9115 24.1979,11 23.75,11 C23.0104,11 22.4167,10.7188 21.9688,10.1563 C21.5208,9.59375 21.2969,8.84896 21.2969,7.92188 C21.2969,6.99479 21.5208,6.25 21.9688,5.6875 C22.4167,5.125 23.0104,4.84375 23.75,4.84375 C24.1979,4.84375 24.5807,4.92969 24.8984,5.10156 C25.2161,5.27344 25.4792,5.53646 25.6875,5.89063 L25.6875,4.98438 L26.6719,4.98438 L26.6719,10.25"/>
</g>

<g fill="none" stroke="#000000" stroke-opacity="1" stroke-width="1" stroke-linecap="square" stroke-linejoin="bevel" transform="matrix(2,0,0,2,306.724,85)"
font-family="sans" font-size="11" font-weight="100" font-style="normal" 
>
</g>

<g fill="none" stroke="#000000" stroke-opacity="1" stroke-width="1" stroke-linecap="square" stroke-linejoin="bevel" transform="matrix(2,0,0,2,306.724,85)"
font-family="Ubuntu" font-size="11" font-weight="400" font-style="normal" 
>
</g>

<g fill="none" stroke="#000000" stroke-opacity="1" stroke-width="1" stroke-linecap="square" stroke-linejoin="bevel" transform="matrix(2,0,0,2,-15,213)"
font-family="Ubuntu" font-size="11" font-weight="400" font-style="normal" 
>
</g>

<g fill="none" stroke="#000000" stroke-opacity="1" stroke-width="1" stroke-linecap="square" stroke-linejoin="bevel" transform="matrix(2,0,0,2,-15,213)"
font-family="Ubuntu" font-size="11" font-weight="400" font-style="normal" 
>
</g>

<g fill="none" stroke="#000000" stroke-opacity="1" stroke-width="1" stroke-linecap="square" stroke-linejoin="bevel" transform="matrix(2,0,0,2,-15,213)"
font-family="Ubuntu" font-size="11" font-weight="400" font-style="normal" 
>
</g>

<g fill="none" stroke="#000000" stroke-opacity="1" stroke-width="1" stroke-linecap="square" stroke-linejoin="round" transform="matrix(2,0,0,2,-15,213)"
font-family="Ubuntu" font-size="11" font-weight="400" font-style="normal" 
>
<rect x="395.38" y="-51.5" width="55.0002" height="35"/>
</g>

<g fill="none" stroke="#000000" stroke-opacity="1" stroke-width="1" stroke-linecap="square" stroke-linejoin="bevel" transform="matrix(2,0,0,2,-15,213)"
font-family="Ubuntu" font-size="11" font-weight="400" font-style="normal" 
>
</g>

<g fill="none" stroke="#000000" stroke-opacity="1" stroke-width="1" stroke-linecap="square" stroke-linejoin="bevel" transform="matrix(2,0,0,2,799.432,131)"
font-family="Ubuntu" font-size="11" font-weight="400" font-style="normal" 
>
</g>

<g fill="none" stroke="#000000" stroke-opacity="1" stroke-width="1" stroke-linecap="square" stroke-linejoin="bevel" transform="matrix(2,0,0,2,799.432,131)"
font-family="sans" font-size="11" font-weight="100" font-style="normal" 
>
</g>

<g fill="#000000" fill-opacity="1" stroke="#000000" stroke-opacity="1" stroke-width="1" stroke-linecap="square" stroke-linejoin="round" transform="matrix(2,0,0,2,799.432,131)"
font-family="sans" font-size="11" font-weight="100" font-style="normal" 
>
<path vector-effect="none" fill-rule="nonzero" d="M2.79688,2.98438 L3.70313,2.98438 L0.90625,12.0156 L0,12.0156 L2.79688,2.98438 M5.70313,10.0938 L5.70313,13.2813 L4.70313,13.2813 L4.70313,4.98438 L5.70313,4.98438 L5.70313,5.89063 C5.90104,5.53646 6.15885,5.27344 6.47656,5.10156 C6.79427,4.92969 7.17708,4.84375 7.625,4.84375 C8.35417,4.84375 8.94531,5.13281 9.39844,5.71094 C9.85156,6.28906 10.0781,7.05208 10.0781,8 C10.0781,8.94792 9.85156,9.71094 9.39844,10.2891 C8.94531,10.8672 8.35417,11.1563 7.625,11.1563 C7.17708,11.1563 6.79427,11.0703 6.47656,10.8984 C6.15885,10.7266 5.90104,10.4583 5.70313,10.0938 M9.0625,8 C9.0625,7.27083 8.91146,6.70052 8.60938,6.28906 C8.30729,5.8776 7.89583,5.67188 7.375,5.67188 C6.85417,5.67188 6.44531,5.8776 6.14844,6.28906 C5.85156,6.70052 5.70313,7.27083 5.70313,8 C5.70313,8.72917 5.85156,9.29948 6.14844,9.71094 C6.44531,10.1224 6.85417,10.3281 7.375,10.3281 C7.89583,10.3281 8.30729,10.1224 8.60938,9.71094 C8.91146,9.29948 9.0625,8.72917 9.0625,8 M14.0469,5.67188 C13.5156,5.67188 13.0964,5.88021 12.7891,6.29688 C12.4818,6.71354 12.3281,7.28125 12.3281,8 C12.3281,8.71875 12.4792,9.28385 12.7813,9.69531 C13.0833,10.1068 13.5052,10.3125 14.0469,10.3125 C14.5677,10.3125 14.9818,10.1068 15.2891,9.69531 C15.5964,9.28385 15.75,8.71875 15.75,8 C15.75,7.28125 15.5964,6.71354 15.2891,6.29688 C14.9818,5.88021 14.5677,5.67188 14.0469,5.67188 M14.0469,4.84375 C14.901,4.84375 15.5729,5.1224 16.0625,5.67969 C16.5521,6.23698 16.7969,7.01042 16.7969,8 C16.7969,8.97917 16.5521,9.75 16.0625,10.3125 C15.5729,10.875 14.901,11.1563 14.0469,11.1563 C13.1823,11.1563 12.5052,10.875 12.0156,10.3125 C11.526,9.75 11.2813,8.97917 11.2813,8 C11.2813,7.01042 11.526,6.23698 12.0156,5.67969 C12.5052,5.1224 13.1823,4.84375 14.0469,4.84375 M23.4219,7.375 L23.4219,11 L22.4375,11 L22.4375,7.40625 C22.4375,6.83333 22.3281,6.40625 22.1094,6.125 C21.8906,5.84375 21.5573,5.70313 21.1094,5.70313 C20.5781,5.70313 20.1589,5.8724 19.8516,6.21094 C19.5443,6.54948 19.3906,7.01042 19.3906,7.59375 L19.3906,11 L18.3906,11 L18.3906,4.98438 L19.3906,4.98438 L19.3906,5.92188 C19.6198,5.55729 19.8958,5.28646 20.2188,5.10938 C20.5417,4.93229 20.9115,4.84375 21.3281,4.84375 C22.0156,4.84375 22.5365,5.05729 22.8906,5.48438 C23.2448,5.91146 23.4219,6.54167 23.4219,7.375 M29.3594,7.92188 C29.3594,7.20313 29.2109,6.64844 28.9141,6.25781 C28.6172,5.86719 28.2031,5.67188 27.6719,5.67188 C27.1406,5.67188 26.7266,5.86719 26.4297,6.25781 C26.1328,6.64844 25.9844,7.20313 25.9844,7.92188 C25.9844,8.63021 26.1328,9.18229 26.4297,9.57813 C26.7266,9.97396 27.1406,10.1719 27.6719,10.1719 C28.2031,10.1719 28.6172,9.97396 28.9141,9.57813 C29.2109,9.18229 29.3594,8.63021 29.3594,7.92188 M30.3438,10.25 C30.3438,11.2813 30.1172,12.0443 29.6641,12.5391 C29.2109,13.0339 28.5156,13.2813 27.5781,13.2813 C27.224,13.2813 26.8932,13.2552 26.5859,13.2031 C26.2786,13.151 25.9792,13.0729 25.6875,12.9688 L25.6875,12.0156 C25.9792,12.1719 26.2656,12.2865 26.5469,12.3594 C26.8281,12.4323 27.1198,12.4688 27.4219,12.4688 C28.0677,12.4688 28.5521,12.2995 28.875,11.9609 C29.1979,11.6224 29.3594,11.1146 29.3594,10.4375 L29.3594,9.9375 C29.151,10.2917 28.888,10.5573 28.5703,10.7344 C28.2526,10.9115 27.8698,11 27.4219,11 C26.6823,11 26.0885,10.7188 25.6406,10.1563 C25.1927,9.59375 24.9688,8.84896 24.9688,7.92188 C24.9688,6.99479 25.1927,6.25 25.6406,5.6875 C26.0885,5.125 26.6823,4.84375 27.4219,4.84375 C27.8698,4.84375 28.2526,4.92969 28.5703,5.10156 C28.888,5.27344 29.151,5.53646 29.3594,5.89063 L29.3594,4.98438 L30.3438,4.98438 L30.3438,10.25"/>
</g>

<g fill="none" stroke="#000000" stroke-opacity="1" stroke-width="1" stroke-linecap="square" stroke-linejoin="bevel" transform="matrix(2,0,0,2,799.432,131)"
font-family="sans" font-size="11" font-weight="100" font-style="normal" 
>
</g>

<g fill="none" stroke="#000000" stroke-opacity="1" stroke-width="1" stroke-linecap="square" stroke-linejoin="bevel" transform="matrix(2,0,0,2,799.432,131)"
font-family="Ubuntu" font-size="11" font-weight="400" font-style="normal" 
>
</g>

<g fill="none" stroke="#000000" stroke-opacity="1" stroke-width="1" stroke-linecap="square" stroke-linejoin="bevel" transform="matrix(2,0,0,2,-15,213)"
font-family="Ubuntu" font-size="11" font-weight="400" font-style="normal" 
>
</g>

<g fill="none" stroke="#000000" stroke-opacity="1" stroke-width="1" stroke-linecap="square" stroke-linejoin="bevel" transform="matrix(2,0,0,2,-15,213)"
font-family="Ubuntu" font-size="11" font-weight="400" font-style="normal" 
>
</g>

<g fill="none" stroke="#000000" stroke-opacity="1" stroke-width="1" stroke-linecap="square" stroke-linejoin="bevel" transform="matrix(2,0,0,2,-15,213)"
font-family="Ubuntu" font-size="11" font-weight="400" font-style="normal" 
>
</g>

<g fill="none" stroke="#000000" stroke-opacity="1" stroke-width="1" stroke-linecap="square" stroke-linejoin="round" transform="matrix(2,0,0,2,-15,213)"
font-family="Ubuntu" font-size="11" font-weight="400" font-style="normal" 
>
<path vector-effect="none" fill-rule="evenodd" d="M120.79,-44.692 C126.39,-45.993 132.04,-47.308 137.46,-48.57 "/>
</g>

<g fill="none" stroke="#000000" stroke-opacity="1" stroke-width="1" stroke-linecap="square" stroke-linejoin="bevel" transform="matrix(2,0,0,2,-15,213)"
font-family="Ubuntu" font-size="11" font-weight="400" font-style="normal" 
>
</g>

<g fill="none" stroke="#000000" stroke-opacity="1" stroke-width="1" stroke-linecap="square" stroke-linejoin="bevel" transform="matrix(2,0,0,2,-15,213)"
font-family="Ubuntu" font-size="11" font-weight="400" font-style="normal" 
>
</g>

<g fill="#000000" fill-opacity="1" stroke="#000000" stroke-opacity="1" stroke-width="1" stroke-linecap="square" stroke-linejoin="round" transform="matrix(2,0,0,2,-15,213)"
font-family="Ubuntu" font-size="11" font-weight="400" font-style="normal" 
>
<path vector-effect="none" fill-rule="evenodd" d="M137.46,-48.57 L138.28,-45.0455 L147.53,-50.913 L136.64,-52.0945 L137.46,-48.57"/>
</g>

<g fill="none" stroke="#000000" stroke-opacity="1" stroke-width="1" stroke-linecap="square" stroke-linejoin="bevel" transform="matrix(2,0,0,2,-15,213)"
font-family="Ubuntu" font-size="11" font-weight="400" font-style="normal" 
>
</g>

<g fill="none" stroke="#000000" stroke-opacity="1" stroke-width="1" stroke-linecap="square" stroke-linejoin="bevel" transform="matrix(2,0,0,2,-15,213)"
font-family="Ubuntu" font-size="11" font-weight="400" font-style="normal" 
>
</g>

<g fill="none" stroke="#000000" stroke-opacity="1" stroke-width="1" stroke-linecap="square" stroke-linejoin="bevel" transform="matrix(2,0,0,2,-15,213)"
font-family="Ubuntu" font-size="11" font-weight="400" font-style="normal" 
>
</g>

<g fill="none" stroke="#000000" stroke-opacity="1" stroke-width="1" stroke-linecap="square" stroke-linejoin="bevel" transform="matrix(2,0,0,2,-15,213)"
font-family="Ubuntu" font-size="11" font-weight="400" font-style="normal" 
>
</g>

<g fill="none" stroke="#000000" stroke-opacity="1" stroke-width="1" stroke-linecap="square" stroke-linejoin="round" transform="matrix(2,0,0,2,-15,213)"
font-family="Ubuntu" font-size="11" font-weight="400" font-style="normal" 
>
<path vector-effect="none" fill-rule="evenodd" d="M360.58,-45.5 C368.81,-43.956 377.04,-42.412 384.68,-40.979 "/>
</g>

<g fill="none" stroke="#000000" stroke-opacity="1" stroke-width="1" stroke-linecap="square" stroke-linejoin="bevel" transform="matrix(2,0,0,2,-15,213)"
font-family="Ubuntu" font-size="11" font-weight="400" font-style="normal" 
>
</g>

<g fill="none" stroke="#000000" stroke-opacity="1" stroke-width="1" stroke-linecap="square" stroke-linejoin="bevel" transform="matrix(2,0,0,2,-15,213)"
font-family="Ubuntu" font-size="11" font-weight="400" font-style="normal" 
>
</g>

<g fill="#000000" fill-opacity="1" stroke="#000000" stroke-opacity="1" stroke-width="1" stroke-linecap="square" stroke-linejoin="round" transform="matrix(2,0,0,2,-15,213)"
font-family="Ubuntu" font-size="11" font-weight="400" font-style="normal" 
>
<path vector-effect="none" fill-rule="evenodd" d="M384.68,-40.979 L384.024,-37.4825 L394.67,-39.104 L385.336,-44.4755 L384.68,-40.979"/>
</g>

<g fill="none" stroke="#000000" stroke-opacity="1" stroke-width="1" stroke-linecap="square" stroke-linejoin="bevel" transform="matrix(2,0,0,2,-15,213)"
font-family="Ubuntu" font-size="11" font-weight="400" font-style="normal" 
>
</g>

<g fill="none" stroke="#000000" stroke-opacity="1" stroke-width="1" stroke-linecap="square" stroke-linejoin="bevel" transform="matrix(2,0,0,2,-15,213)"
font-family="Ubuntu" font-size="11" font-weight="400" font-style="normal" 
>
</g>

<g fill="none" stroke="#000000" stroke-opacity="1" stroke-width="1" stroke-linecap="square" stroke-linejoin="bevel" transform="matrix(2,0,0,2,-15,213)"
font-family="Ubuntu" font-size="11" font-weight="400" font-style="normal" 
>
</g>

<g fill="none" stroke="#000000" stroke-opacity="1" stroke-width="1" stroke-linecap="square" stroke-linejoin="bevel" transform="matrix(2,0,0,2,-15,213)"
font-family="Ubuntu" font-size="11" font-weight="400" font-style="normal" 
>
</g>

<g fill="none" stroke="#000000" stroke-opacity="1" stroke-width="1" stroke-linecap="square" stroke-linejoin="round" transform="matrix(2,0,0,2,-15,213)"
font-family="Ubuntu" font-size="11" font-weight="400" font-style="normal" 
>
<path vector-effect="none" fill-rule="evenodd" d="M201.77,-57 C203.61,-57 205.5,-57 207.45,-57 "/>
</g>

<g fill="none" stroke="#000000" stroke-opacity="1" stroke-width="1" stroke-linecap="square" stroke-linejoin="bevel" transform="matrix(2,0,0,2,-15,213)"
font-family="Ubuntu" font-size="11" font-weight="400" font-style="normal" 
>
</g>

<g fill="none" stroke="#000000" stroke-opacity="1" stroke-width="1" stroke-linecap="square" stroke-linejoin="bevel" transform="matrix(2,0,0,2,-15,213)"
font-family="Ubuntu" font-size="11" font-weight="400" font-style="normal" 
>
</g>

<g fill="#000000" fill-opacity="1" stroke="#000000" stroke-opacity="1" stroke-width="1" stroke-linecap="square" stroke-linejoin="round" transform="matrix(2,0,0,2,-15,213)"
font-family="Ubuntu" font-size="11" font-weight="400" font-style="normal" 
>
<path vector-effect="none" fill-rule="evenodd" d="M207.45,-57 L207.45,-53.4615 L217.56,-57 L207.45,-60.5385 L207.45,-57"/>
</g>

<g fill="none" stroke="#000000" stroke-opacity="1" stroke-width="1" stroke-linecap="square" stroke-linejoin="bevel" transform="matrix(2,0,0,2,-15,213)"
font-family="Ubuntu" font-size="11" font-weight="400" font-style="normal" 
>
</g>

<g fill="none" stroke="#000000" stroke-opacity="1" stroke-width="1" stroke-linecap="square" stroke-linejoin="bevel" transform="matrix(2,0,0,2,-15,213)"
font-family="Ubuntu" font-size="11" font-weight="400" font-style="normal" 
>
</g>

<g fill="none" stroke="#000000" stroke-opacity="1" stroke-width="1" stroke-linecap="square" stroke-linejoin="bevel" transform="matrix(2,0,0,2,-15,213)"
font-family="Ubuntu" font-size="11" font-weight="400" font-style="normal" 
>
</g>

<g fill="none" stroke="#000000" stroke-opacity="1" stroke-width="1" stroke-linecap="square" stroke-linejoin="bevel" transform="matrix(2,0,0,2,-15,213)"
font-family="Ubuntu" font-size="11" font-weight="400" font-style="normal" 
>
</g>

<g fill="none" stroke="#000000" stroke-opacity="1" stroke-width="1" stroke-linecap="square" stroke-linejoin="round" transform="matrix(2,0,0,2,-15,213)"
font-family="Ubuntu" font-size="11" font-weight="400" font-style="normal" 
>
<path vector-effect="none" fill-rule="evenodd" d="M394.82,-28.041 C392.15,-27.617 389.47,-27.256 386.88,-27 C281.08,-16.524 253.86,-24.516 147.69,-30 C145.48,-30.114 143.23,-30.231 140.96,-30.351 "/>
</g>

<g fill="none" stroke="#000000" stroke-opacity="1" stroke-width="1" stroke-linecap="square" stroke-linejoin="bevel" transform="matrix(2,0,0,2,-15,213)"
font-family="Ubuntu" font-size="11" font-weight="400" font-style="normal" 
>
</g>

<g fill="none" stroke="#000000" stroke-opacity="1" stroke-width="1" stroke-linecap="square" stroke-linejoin="bevel" transform="matrix(2,0,0,2,-15,213)"
font-family="Ubuntu" font-size="11" font-weight="400" font-style="normal" 
>
</g>

<g fill="#000000" fill-opacity="1" stroke="#000000" stroke-opacity="1" stroke-width="1" stroke-linecap="square" stroke-linejoin="round" transform="matrix(2,0,0,2,-15,213)"
font-family="Ubuntu" font-size="11" font-weight="400" font-style="normal" 
>
<path vector-effect="none" fill-rule="evenodd" d="M140.96,-30.351 L141.147,-33.865 L130.92,-30.884 L140.773,-26.837 L140.96,-30.351"/>
</g>

<g fill="none" stroke="#000000" stroke-opacity="1" stroke-width="1" stroke-linecap="square" stroke-linejoin="bevel" transform="matrix(2,0,0,2,-15,213)"
font-family="Ubuntu" font-size="11" font-weight="400" font-style="normal" 
>
</g>

<g fill="none" stroke="#000000" stroke-opacity="1" stroke-width="1" stroke-linecap="square" stroke-linejoin="bevel" transform="matrix(1,0,0,1,0,0)"
font-family="Ubuntu" font-size="11" font-weight="400" font-style="normal" 
>
</g>
</g>
</svg>
